<?xml version="1.0" encoding="utf-8"?>
<!-- Generator: Adobe Illustrator 23.0.1, SVG Export Plug-In . SVG Version: 6.00 Build 0)  -->
<svg version="1.1" id="Layer_1" xmlns="http://www.w3.org/2000/svg" xmlns:xlink="http://www.w3.org/1999/xlink" x="0px" y="0px"
	 viewBox="0 0 405 53" style="enable-background:new 0 0 405 53;" xml:space="preserve">
<style type="text/css">
	.st0{fill:none;stroke:#231F20;stroke-width:0.5394;}
	.st1{fill:#BC262B;}
	.st2{fill:#FFFFFF;}
	.st3{fill:none;stroke:#231F20;stroke-width:0.4645;}
	.st4{fill:#231F20;}
	.st5{fill:none;stroke:#231F20;stroke-width:0.0949;}
	.st6{fill:none;stroke:#231F20;stroke-width:0.0967;}
</style>
<g>
	<g>
		<line class="st0" x1="224.97" y1="51.86" x2="224.97" y2="0.49"/>
		<path d="M126.46,8.7c-0.46-0.99-1.14-1.72-2.31-1.98V6.15c0.73,0,3.15,0.09,3.7,0.09c0.51,0,2.7-0.09,3.45-0.09v0.56
			c-0.66,0.13-1.42,0.5-1.42,1.18c0,0.48,0.3,1.15,0.86,2.4l5.31,12.07l5.01-12.08c0.4-0.98,0.68-1.73,0.68-2.3
			c0-0.64-0.59-1.08-1.42-1.25V6.15c0.66,0,2.28,0.09,2.79,0.09c0.47,0,2.38-0.09,3.11-0.09v0.58c-1.25,0.34-2.01,1.03-2.71,2.66
			l-7.38,17.41h-1.55L126.46,8.7L126.46,8.7z"/>
		<path d="M54.78,26.13c0.96-0.22,1.64-0.65,1.64-1.75V8.42c0-1.05-0.63-1.49-1.64-1.75V6.1c0.5,0,2.69,0.09,3.21,0.09
			c0.61,0,2.93-0.09,3.43-0.09v0.57c-0.96,0.22-1.68,0.66-1.68,1.75v6.67h11.89V8.42c0-1.09-0.63-1.53-1.63-1.75V6.1
			c0.5,0,2.77,0.09,3.38,0.09c0.53,0,2.75-0.09,3.26-0.09v0.57c-0.96,0.22-1.68,0.66-1.68,1.75v15.96c0,1.05,0.67,1.49,1.68,1.75
			v0.53c-0.5,0-2.73-0.04-3.26-0.04c-0.61,0-2.88,0.04-3.38,0.04v-0.53c0.96-0.22,1.63-0.65,1.63-1.75v-7.54H59.75v7.54
			c0,1.09,0.68,1.49,1.68,1.75v0.53c-0.5,0-2.82-0.04-3.43-0.04c-0.53,0-2.71,0.04-3.21,0.04V26.13L54.78,26.13z M79.91,26.13
			c1.29-0.3,2.01-1.14,2.49-2.27l6.57-15.83c0.28-0.66,0.61-2,0.61-2h1.84c0,0,0.33,1.35,0.61,2l6.95,15.87
			c0.49,1.09,1.03,1.88,2.41,2.23l0,0.53c-0.75,0-3.09-0.04-3.62-0.04c-0.53,0-2.76,0.04-3.52,0.04l0-0.53
			c1.01-0.25,1.33-0.76,1.33-1.26c0-0.42-0.17-0.9-0.38-1.4l-1.47-3.36l-7.7,0l-1.35,3.38c-0.15,0.39-0.33,0.94-0.33,1.31
			c0,0.57,0.3,1.03,1.45,1.33l0,0.53c-0.68,0-2.47-0.04-2.9-0.04l-2.97,0.04L79.91,26.13L79.91,26.13z M93,18.45l-3.27-7.62
			l-3.04,7.62H93L93,18.45z M79.91,26.13c1.29-0.3,2.01-1.14,2.49-2.27l6.57-15.83c0.28-0.66,0.61-2,0.61-2h1.84
			c0,0,0.33,1.35,0.61,2l6.95,15.87c0.49,1.09,1.03,1.88,2.41,2.23l0,0.53c-0.75,0-3.09-0.04-3.62-0.04c-0.53,0-2.76,0.04-3.52,0.04
			l0-0.53c1.01-0.25,1.33-0.76,1.33-1.26c0-0.42-0.17-0.9-0.38-1.4l-1.47-3.36l-7.7,0l-1.35,3.38c-0.15,0.39-0.33,0.94-0.33,1.31
			c0,0.57,0.3,1.03,1.45,1.33l0,0.53c-0.68,0-2.47-0.04-2.9-0.04l-2.97,0.04L79.91,26.13L79.91,26.13z M93,18.45l-3.27-7.62
			l-3.04,7.62H93L93,18.45z M145.09,26.13c1.29-0.3,2.01-1.14,2.48-2.27l6.58-15.83c0.27-0.66,0.6-2,0.6-2h1.84c0,0,0.33,1.35,0.6,2
			l6.95,15.87c0.5,1.09,1.03,1.88,2.42,2.23l0,0.53c-0.75,0-3.09-0.04-3.62-0.04c-0.53,0-2.76,0.04-3.52,0.04l0.01-0.53
			c1.01-0.25,1.33-0.76,1.33-1.26c0-0.42-0.18-0.9-0.39-1.4l-1.47-3.36l-7.71,0l-1.35,3.38c-0.16,0.39-0.33,0.94-0.33,1.31
			c0,0.57,0.3,1.03,1.45,1.33l0,0.53c-0.68,0-2.42-0.04-2.84-0.04l-3.03,0.04L145.09,26.13L145.09,26.13z M158.18,18.45l-3.27-7.62
			l-3.05,7.62H158.18L158.18,18.45z M192.61,26.13c1.24-0.22,1.91-0.71,1.91-1.83V8.42c0-1.1-0.67-1.53-1.86-1.75V6.1
			c0.69,0,2.95,0.09,3.56,0.09c1.01,0,3.85-0.22,6.02-0.22c7.32,0,11.76,4.08,11.76,10.3c0,6.04-4.62,10.52-12.16,10.52
			c-2.17,0-4.81-0.17-5.82-0.17c-0.61,0-2.72,0.09-3.41,0.09V26.13L192.61,26.13z M197.84,25.08c0.75,0.13,2.12,0.22,3.21,0.22
			c6.14,0,9.34-3.69,9.34-8.85c0-5.35-3.37-9.12-9.12-9.12c-1.17,0-2.65,0.09-3.43,0.22V25.08L197.84,25.08z"/>
		<path d="M109.62,24.24c0,1.06,0.67,1.63,1.91,1.89v0.57c-0.69,0-2.93-0.09-3.57-0.09c-0.55,0-2.74,0.09-3.43,0.09v-0.57
			c1.15-0.22,1.82-0.79,1.82-1.89V8.47c0-0.97-0.52-1.58-1.82-1.8V6.1c0.69,0,2.86,0.09,3.47,0.09c1,0,3.86-0.16,4.98-0.16
			c4.92,0,7.66,2.03,7.66,5.51c0,2.74-2.04,4.59-5.18,5.35c0,0,0.71,0.42,1.42,1.25c0.87,1.02,3.27,4.45,4.24,5.62
			c0.97,1.17,2.21,2.52,3.53,2.58v0.43c-0.63,0.14-1.65,0.26-2.43,0.26c-1.68,0-3.01-0.59-4.31-2.16c-1.12-1.36-3.07-4.26-4.19-5.69
			c-0.71-0.91-1.58-1.63-3.16-1.88c-0.31-0.05-0.6-0.1-0.95-0.14V24.24L109.62,24.24z M109.62,15.87c0.65,0.08,1.61,0.13,2.57,0.13
			c3.85,0,5.06-2.21,5.06-4.17c0-2.78-1.85-4.5-5.22-4.5c-0.69,0-1.7,0.09-2.4,0.22V15.87L109.62,15.87z"/>
		<path d="M174.47,24.24c0,1.06,0.67,1.63,1.91,1.89v0.57c-0.69,0-2.92-0.09-3.56-0.09c-0.55,0-2.75,0.09-3.43,0.09v-0.57
			c1.14-0.22,1.82-0.79,1.82-1.89V8.47c0-0.97-0.53-1.58-1.82-1.8V6.1c0.69,0,2.85,0.09,3.47,0.09c1.01,0,3.86-0.16,4.98-0.16
			c4.92,0,7.66,2.03,7.66,5.51c0,2.74-2.04,4.59-5.17,5.35c0,0,0.71,0.42,1.42,1.25c0.87,1.02,3.27,4.45,4.23,5.62
			c0.97,1.17,2.21,2.52,3.54,2.58v0.43c-0.63,0.14-1.66,0.26-2.43,0.26c-1.68,0-3.02-0.59-4.31-2.16c-1.12-1.36-3.07-4.26-4.19-5.69
			c-0.72-0.91-1.58-1.63-3.16-1.88c-0.32-0.05-0.6-0.1-0.95-0.14V24.24L174.47,24.24z M174.47,15.87c0.66,0.08,1.62,0.13,2.57,0.13
			c3.85,0,5.06-2.21,5.06-4.17c0-2.78-1.85-4.5-5.22-4.5c-0.69,0-1.7,0.09-2.4,0.22V15.87L174.47,15.87z"/>
		<path class="st1" d="M54.79,46.85c0.3,0,1.09-0.03,1.33-0.03c0.28,0,1.17,0.03,1.45,0.03v-0.41c-0.69-0.15-0.9-0.53-0.87-0.81
			l0.58-6.41l3.7,7.59h0.72l3.16-7.38l0.46,6.2c0.02,0.29-0.25,0.69-0.71,0.81v0.41c0.3,0,1.3-0.03,1.54-0.03
			c0.28,0,1.32,0.03,1.59,0.03v-0.41c-0.46-0.13-0.69-0.48-0.71-0.82l-0.56-7.89c-0.03-0.53,0.18-0.92,0.63-1.05v-0.41
			c-0.41,0-0.79,0.03-1.05,0.03c-0.25,0-0.57-0.03-0.95-0.03l-3.43,8.02l-3.9-8.02c-0.36,0-0.74,0.03-0.98,0.03
			c-0.26,0-0.64-0.03-1.05-0.03v0.41c0.46,0.13,0.69,0.53,0.64,1.04l-0.71,7.89c-0.03,0.31-0.4,0.72-0.87,0.84V46.85L54.79,46.85z
			 M71.45,46.85c0.38,0,1.38-0.03,1.66-0.03h3.12c1.05,0,1.61,0,2.6,0.1l0.26-1.87l-0.43-0.1c-0.31,0.59-0.81,0.97-1.81,0.97H74
			v-4.17h2.55c0.39,0,0.67,0.21,0.9,0.61h0.41c0-0.33-0.02-0.87-0.02-1.05c0-0.18,0-0.71,0.03-1.04h-0.43
			c-0.21,0.41-0.49,0.61-0.9,0.61H74v-3.7h2.89c0.79,0,1.28,0.34,1.51,1.02h0.41l0.05-2.05h-0.41c-0.18,0.1-0.44,0.13-0.61,0.13
			h-6.39v0.41c0.56,0.13,0.79,0.49,0.79,0.81v8.08c0,0.35-0.23,0.77-0.79,0.87V46.85L71.45,46.85z M82.46,46.85
			c0.38,0,1.38-0.03,1.66-0.03c0.48,0,1.91,0.1,2.94,0.1c3.29,0,5.55-2.15,5.55-5.18c0-3.12-2.24-5.54-5.55-5.54
			c-1.04,0-2.47,0.1-2.94,0.1c-0.28,0-1.3-0.03-1.66-0.03v0.41c0.56,0.13,0.79,0.51,0.79,0.82v8.07c0,0.35-0.23,0.77-0.79,0.87
			V46.85L82.46,46.85z M85.01,37.07c0.36-0.07,0.99-0.1,1.51-0.1c2.46,0,4.21,2.18,4.21,4.7c0,2.61-1.78,4.37-4.29,4.37
			c-0.51,0-1.07-0.03-1.43-0.1V37.07L85.01,37.07z M96.12,46.85c0.3,0,1.49-0.03,1.77-0.03c0.25,0,1.43,0.03,1.71,0.03v-0.41
			c-0.62-0.17-0.87-0.41-0.87-0.82V37.5c0-0.41,0.25-0.66,0.87-0.82v-0.41c-0.29,0-1.46,0.03-1.71,0.03c-0.28,0-1.5-0.03-1.77-0.03
			v0.41c0.62,0.13,0.85,0.41,0.85,0.82v8.12c0,0.41-0.23,0.69-0.85,0.82V46.85L96.12,46.85z M112.11,44.6
			c-0.64,1.25-1.94,1.53-3.29,1.53c-2.47,0-3.78-2.48-3.78-4.57c0-2.55,1.38-4.57,3.78-4.57c1.28,0,2.53,0.36,3.12,1.53h0.41
			l-0.1-1.89c-0.18,0-0.39-0.02-0.85-0.11c-0.85-0.18-1.69-0.41-2.58-0.41c-3.48,0-5.67,2.4-5.67,5.46c0,3.02,1.97,5.46,5.67,5.46
			c0.95,0,1.82-0.21,2.74-0.41c0.39-0.08,0.77-0.13,0.86-0.12l0.1-1.89H112.11L112.11,44.6z M114.69,46.85
			c0.43,0,1.25-0.03,1.46-0.03c0.21,0,0.95,0.03,1.32,0.03v-0.41c-0.48-0.17-0.64-0.4-0.61-0.61c0.02-0.1,0.13-0.44,0.18-0.56
			l0.59-1.43h3.86l0.56,1.43c0.05,0.11,0.17,0.46,0.18,0.56c0.03,0.21-0.02,0.44-0.49,0.61v0.41c0.41,0,1.43-0.03,1.68-0.03
			c0.25,0,1.22,0.03,1.63,0.03v-0.41c-0.66-0.17-0.87-0.53-1.09-1.09l-3.06-7.92c-0.13-0.34-0.36-1.26-0.36-1.26h-1.12
			c0,0-0.21,0.92-0.36,1.26l-3.29,7.92c-0.23,0.56-0.43,0.92-1.09,1.09V46.85L114.69,46.85z M118.03,42.9l1.61-3.86l1.5,3.86H118.03
			L118.03,42.9z M128.04,46.85c0.38,0,1.38-0.03,1.66-0.03h3.12c1.05,0,1.61,0,2.6,0.1l0.26-2.2l-0.41-0.1
			c-0.43,0.86-0.85,1.3-1.82,1.3h-2.86V37.5c0-0.41,0.25-0.66,0.87-0.82v-0.41c-0.3,0-1.5,0.03-1.74,0.03
			c-0.28,0-1.46-0.03-1.74-0.03v0.41c0.62,0.13,0.85,0.41,0.85,0.82v8.07c0,0.35-0.23,0.77-0.79,0.87V46.85L128.04,46.85z
			 M143.2,46.5c1.1,0.3,2.04,0.51,3.02,0.51c2.15,0,3.71-1.15,3.71-3.16c0-1.05-0.51-1.77-1.23-2.22c-0.95-0.58-2.24-1-3.19-1.54
			c-0.56-0.31-0.94-0.79-0.94-1.58c0-0.94,0.84-1.64,2.05-1.64c1.08,0,2.14,0.54,2.53,1.54h0.41l-0.07-2.14
			c-0.99,0.03-1.92-0.18-2.75-0.18c-2.05,0-3.88,0.9-3.88,3.02c0,1.38,0.76,2.17,1.68,2.61c1,0.49,2.19,0.87,3.11,1.48
			c0.44,0.3,0.59,0.77,0.59,1.33c0,1.15-0.89,1.59-2.12,1.59c-0.56,0-1.3-0.15-1.76-0.44c-0.3-0.2-0.66-0.66-0.82-1.17h-0.43
			L143.2,46.5L143.2,46.5z M162.18,44.6c-0.64,1.25-1.94,1.53-3.29,1.53c-2.47,0-3.78-2.48-3.78-4.57c0-2.55,1.38-4.57,3.78-4.57
			c1.28,0,2.53,0.36,3.12,1.53h0.41l-0.1-1.89c-0.18,0-0.39-0.02-0.85-0.11c-0.85-0.18-1.69-0.41-2.58-0.41
			c-3.48,0-5.67,2.4-5.67,5.46c0,3.02,1.97,5.46,5.67,5.46c0.95,0,1.82-0.21,2.74-0.41c0.39-0.08,0.77-0.13,0.85-0.12l0.1-1.89
			H162.18L162.18,44.6z M165.55,46.85c0.3,0,1.3-0.03,1.55-0.03c0.28,0,1.35,0.03,1.63,0.03v-0.41c-0.48-0.13-0.71-0.49-0.71-0.82
			v-3.89h5.67v3.89c0,0.34-0.25,0.71-0.69,0.82v0.41c0.3,0,1.33-0.03,1.61-0.03c0.25,0,1.27,0.03,1.55,0.03v-0.41
			c-0.46-0.13-0.71-0.51-0.71-0.82V37.5c0-0.33,0.26-0.71,0.71-0.82v-0.41c-0.3,0-1.3,0.03-1.55,0.03c-0.28,0-1.33-0.03-1.61-0.03
			v0.41c0.46,0.13,0.69,0.48,0.69,0.82v3.29h-5.67V37.5c0-0.33,0.26-0.71,0.71-0.82v-0.41c-0.3,0-1.35,0.03-1.63,0.03
			c-0.25,0-1.26-0.03-1.55-0.03v0.41c0.46,0.13,0.71,0.51,0.71,0.82v8.12c0,0.33-0.26,0.71-0.71,0.82V46.85L165.55,46.85z
			 M184.7,47.01c3.27,0,5.36-2.5,5.36-5.42c0-2.94-2.09-5.49-5.36-5.49c-3.29,0-5.37,2.56-5.37,5.49
			C179.33,44.53,181.41,47.01,184.7,47.01L184.7,47.01z M184.7,46.12c-2.45,0-3.48-2.17-3.48-4.54c0-2.37,1.04-4.6,3.48-4.6
			c2.45,0,3.47,2.24,3.47,4.6C188.17,43.96,187.15,46.12,184.7,46.12L184.7,46.12z M198.09,47.01c3.27,0,5.36-2.5,5.36-5.42
			c0-2.94-2.09-5.49-5.36-5.49c-3.29,0-5.37,2.56-5.37,5.49C192.72,44.53,194.81,47.01,198.09,47.01L198.09,47.01z M198.09,46.12
			c-2.45,0-3.48-2.17-3.48-4.54c0-2.37,1.04-4.6,3.48-4.6c2.45,0,3.47,2.24,3.47,4.6C201.56,43.96,200.54,46.12,198.09,46.12
			L198.09,46.12z M206.36,46.85c0.38,0,1.38-0.03,1.66-0.03h3.12c1.05,0,1.61,0,2.6,0.1l0.26-2.2l-0.41-0.1
			c-0.43,0.86-0.85,1.3-1.82,1.3h-2.86V37.5c0-0.41,0.25-0.66,0.87-0.82v-0.41c-0.3,0-1.49,0.03-1.74,0.03
			c-0.28,0-1.46-0.03-1.74-0.03v0.41c0.62,0.13,0.85,0.41,0.85,0.82v8.07c0,0.35-0.23,0.77-0.79,0.87V46.85L206.36,46.85z"/>
		<path class="st1" d="M22.58-0.19l-22.11,0L0.42,17.51c0,21.69,21.75,35.5,21.97,35.64l0.07,0.04c0.06,0,0.19-0.1,0.19-0.1
			c3.69-2.42,22.13-15.49,22.13-35.48l0-17.76C44.73-0.19,22.58-0.19,22.58-0.19L22.58-0.19z M44.65,15.49H0.86v-2.55h43.79V15.49
			L44.65,15.49z"/>
		<path class="st2" d="M9.91,17.53c-0.01,0.03-0.05,0.27-0.05,0.27c-0.03,0.17-0.14,0.29-0.32,0.26l-0.62-0.11
			c-0.26-0.07-0.48-0.13-0.68-0.06C8.15,17.96,8,18.08,7.88,18.22c0.04,0.02,0.1,0.05,0.1,0.05c0.18,0.07,0.47,0.18,0.55,0.53
			c0.01,0.27,0.17,0.49,0.31,0.69l0.11,0.16c0.05,0.07,0.07,0.13,0.07,0.19c0,0.05-0.02,0.1-0.06,0.15l-0.29,0.34
			c0,0-0.17,0.18-0.17,0.18c0,0.01-0.14,0.34-0.21,0.54c0.06,0.12,0.14,0.23,0.22,0.24c0.26-0.06,0.51-0.03,0.7,0.02l0.41,0.05
			c-0.02,0,0.1,0,0.08,0l0.16-0.01c0.18-0.03,0.44-0.06,0.64,0.1c0,0,0.19,0.4,0.2,0.43c0.04,0.12,0.07,0.25,0.07,0.36
			c0,0.16-0.03,0.31-0.06,0.45l-0.04,0.24c-0.01,0.05-0.03,0.12-0.05,0.15c-0.39,0.57-0.93,1.03-1.54,1.32
			c0.04-0.02,0.05-0.03,0.05-0.03c-0.01,0.01-0.01,0.04-0.01,0.07c0,0.01,0.01,0.02,0.01,0.04c0.08,0.06,0.32,0.04,0.49,0.02
			l0.17-0.02c0.29-0.01,0.53-0.1,0.8-0.2l0.85-0.23c0.15-0.04,0.25,0.04,0.32,0.18c0.16,0.32,0.35,0.55,0.52,0.64
			c-0.01-0.01,0.01-0.02,0.16-0.14c0.17-0.14,0.44-0.37,0.85-0.22c0.03,0.01,0.06,0.03,0.08,0.05c0.28,0.21,0.37,0.52,0.44,0.77
			c0.05,0.18,0.1,0.34,0.2,0.45c0.05,0.05,0.08,0.11,0.09,0.18c0.01,0.03,0.01,0.06,0.01,0.09c0,0.32-0.28,0.44-0.37,0.48
			l-0.05,0.03c-0.03,0.01-0.05,0.04-0.08,0.05l-0.69,0.11c-0.24,0.02-0.44,0.05-0.59,0.13c0.03,0.03,0.03,0.06,0.08,0.09
			c0.33,0.17,0.74,0.24,1.17,0.31l0.24,0.04c-0.01,0,0.54-0.02,0.54-0.02l0.87,0.02c0.12,0,0.18,0.06,0.24,0.16
			c0.05,0.1,0.01,0.22-0.05,0.32l-0.14,0.23c-0.02,0.04-0.05,0.07-0.09,0.1l-1.42,0.95c-0.06,0.03-0.84,0.31-0.84,0.31l-1.09,0.43
			c-0.01,0-0.06,0.03-0.07,0.03c-0.64,0.16-1.07-0.19-1.42-0.47c-0.25-0.2-0.47-0.38-0.71-0.36c-0.26,0-0.42,0.06-0.62,0.24
			c-0.06,0.07-0.09,0.18-0.09,0.29c0,0.04,0.01,0.08,0.01,0.11c0.03,0.01,0.07,0.03,0.07,0.03c0.13,0.05,0.44,0.16,0.44,0.54
			c-0.02,0.49-0.22,0.88-0.42,1.26c-0.17,0.33-0.33,0.64-0.36,0.98c0,0.02,0,0.05,0,0.07c0,0.07,0.01,0.14,0.06,0.15
			c0.04,0.02,0.04,0.02,0.04,0.02c0.03,0.01,0.09-0.01,0.11-0.03c0,0,0.09-0.13,0.09-0.13c0.08-0.14,0.21-0.38,0.54-0.45
			c0.03-0.01,0.07-0.01,0.1,0c0.57,0.07,0.88,0,1.08-0.21c0.05-0.05,0.11-0.09,0.18-0.1c0.17-0.03,0.35,0.03,0.49,0.15
			c0.14,0.12,0.23,0.29,0.23,0.46c0,0,0.01,0.08,0.01,0.15c0.34-0.06,0.58-0.38,0.86-0.85l0.11-0.19c0.04-0.07,0.14-0.13,0.22-0.15
			l0.23-0.06c0.26-0.09,0.63-0.2,0.98,0.02c0.07,0.05,0.12,0.12,0.14,0.2c0.02,0.09,0.03,0.17,0.03,0.25c0,0.3-0.13,0.56-0.24,0.77
			c0,0-0.06,0.14-0.1,0.26c0.54-0.12,0.93-0.59,1.33-1.11l0.24-0.3c0.07-0.17,0.24-0.52,0.68-0.52c0.03,0,0.06,0,0.09,0.01
			c0.19,0.06,0.27,0,0.53-0.37l0.43-0.48c0.06-0.07,0.1-0.06,0.19-0.06h0.17c0.09,0,0.16-0.01,0.22,0.05
			c0.06,0.06,0.09,0.1,0.09,0.18c0,0,0,0.42,0,0.42s0,0.01,0,0.02c0.05-0.02,0.33-0.12,0.43-0.16c0.01-0.01,0.6-0.37,0.6-0.37
			c0.08-0.04,0.18-0.05,0.27-0.03l2.2,0.57c0.45,0.17,0.53,0.48,0.53,0.74c0,0.1-0.01,0.19-0.02,0.26c-0.01,0.08-0.02,0.15-0.02,0.2
			c0,0.06,0.01,0.1,0.04,0.13c0.06,0.06,0.09,0.14,0.09,0.23c0,0.04-0.01,0.09-0.03,0.13c-0.09,0.21-0.32,0.46-0.9,0.46
			c-0.01,0-1.11,0.06-1.11,0.06c-0.92,0.02-1.79,0.03-2.42,0.63c0,0-0.6,0.6-0.6,0.6c-0.06,0.06-0.14,0.09-0.22,0.09
			c-0.43,0.01-0.75,0.22-1.11,0.45c-0.33,0.21-0.68,0.43-1.12,0.51c-0.32,0.18-0.68,0.18-0.98,0.17c-0.26-0.01-0.42,0-0.53,0.05
			c0.29,0.34,0.82,0.51,1.31,0.64c0.05,0.02,0.27,0.05,0.27,0.05c0.24,0.01,0.59,0.03,0.77,0.38c0.02,0.04,0.03,0.07,0.03,0.11
			c0.03,0.3,0.08,0.42,0.2,0.46c0.02-0.01,0.05-0.03,0.05-0.03c0.11-0.07,0.41-0.24,0.71,0.02c0.05,0.05,0.52,0.51,0.52,0.51
			l0.58,0.6c0.1,0.1,0.08,0.2,0.01,0.33c-0.26,0.47-0.77,0.39-1.07,0.34l-0.25-0.03c-0.02-0.03-0.33,0.02-0.33,0.02
			c-0.47,0.09-1.12,0.2-1.57-0.34c0.01,0.02,0.04,0.04,0.06,0.05l-0.44-0.37c-0.36-0.32-0.67-0.58-1.1-0.6
			c-0.45,0.13-0.66,0.27-0.7,0.5c0,0.01,0,0.02,0,0.02c0,0,0.11,0.12,0.11,0.12l0.19,0.21c0.05,0.06,0.07,0.11,0.07,0.18
			c0,0.02,0,0.03,0,0.05c-0.01,0.09-0.08,0.16-0.16,0.21c-0.37,0.25-0.78,0.62-0.78,1.06c0,0.06,0.01,0.12,0.02,0.17
			c0,0,0.02,0.04,0.03,0.07c0.04-0.01,0.14-0.04,0.14-0.04c0.17-0.06,0.42-0.16,0.71,0c0.1,0.05,0.16,0.13,0.17,0.24l0.02,0.34
			c0.01,0.38,0.06,0.55,0.18,0.64c0.08-0.03,0.18-0.07,0.18-0.07c0.25-0.13,0.63-0.33,1.08,0c0.08,0.03,0.2-0.02,0.45-0.17l0.42-0.2
			c0.04-0.02,0.05-0.01,0.1-0.01c0.78,0,1.09,0.67,1.3,1.12c0,0,0,0,0,0c0.01,0.01,0.03,0.02,0.03,0.02
			c0.34,0.27,0.63,0.46,0.88,0.39c0.01-0.04,0.03-0.06,0.03-0.11c0-0.07-0.01-0.16-0.03-0.27c-0.02-0.1-0.04-0.22-0.04-0.35
			c0-0.27,0.09-0.56,0.49-0.76c0.05-0.02,0.77-0.07,0.77-0.07l0.46-0.01c0.01,0,0.08-0.01,0.1-0.01c0.67,0.06,1.21,0.07,1.44-0.4
			c0.01-0.02,0.48-0.82,0.56-0.95c0.02-0.09,0.11-0.55,0.11-0.55c0.02-0.12,0.11-0.21,0.22-0.25c0.25-0.08,0.49,0.01,0.69,0.09
			c0,0,0.1,0.03,0.17,0.05c-0.11-0.38-0.2-0.76-0.2-1.15c0-0.2,0.01-0.39,0.04-0.6c0.15-0.56,0.38-1,0.7-1.31
			c0.09-0.09,0.23-0.12,0.35-0.07l0.15,0.06c0.1,0.04,0.17,0.12,0.19,0.23l0.14,0.72c0.08,0.47,0.16,0.91,0.35,1.32
			c0.03,0.07,0.05,0.09,0.03,0.17l-0.26,1.07l-0.23,0.85c-0.2,0.79-0.73,1.43-1.48,1.8c0.01,0-0.04,0.07-0.02,0.1
			c0.01,0.01,0.16,0.01,0.29,0c0,0,0.19,0.01,0.3,0.01c0.83-0.11,1.59-0.5,2.14-1.11c0.08-0.09,0.21-0.13,0.32-0.09
			c0.16,0.04,0.29-0.02,0.5-0.14c0.26-0.15,0.64-0.36,1.11-0.08c0.18,0.14,0.45,0.12,0.72,0.09c0.44-0.03,1.16-0.1,1.36,0.75
			c0.01,0.02,0,0.11,0,0.13l0.02,0.39c0.05,0.4,0.14,1.15-0.66,1.36c-0.07,0.02-0.07,0.03-0.13,0.01l-0.82-0.31
			c-0.64-0.31-0.93-0.4-1.25-0.03c-0.08,0.08-0.17,0.19-0.13,0.28c0.11,0.19,0.39,0.67-0.02,1.02c0.03-0.02,0.05-0.05,0.07-0.08
			l-0.04,0.08c-0.21,0.35-0.35,0.62-0.25,0.86c0-0.01,0.04,0.07,0.32,0.01c0.33-0.14,0.68,0,0.96,0.11l0.4,0.12
			c0.04,0.01,0.14,0.04,0.17,0.07l0.13,0.1c0.26,0.21,0.52,0.38,0.78,0.42c0.01-0.03,0.03-0.06,0.03-0.06l0.18-0.35
			c0.04-0.04,0.54-0.29,0.54-0.29c0.33-0.12,0.37-0.16,0.37-0.28c0.1-0.53,0.46-1,0.98-1.32c0.05-0.03,0.14-0.04,0.19-0.04
			c0.11-0.01,0.48-0.13,0.7-0.28c-0.01-0.01-0.04-0.04-0.04-0.04l-0.13-0.14c-0.04-0.04-0.1-0.13-0.11-0.18
			c-0.02-0.08-0.02-0.15-0.02-0.22c0-0.37,0.2-0.68,0.36-0.94c0.17-0.26,0.26-0.42,0.26-0.57c0-0.09-0.04-0.18-0.11-0.29
			c-0.03-0.04-0.04-0.05-0.05-0.1l-0.09-0.53c-0.04-0.33-0.08-0.63-0.31-0.81c-0.01-0.01-0.57-0.29-0.57-0.29l-0.62-0.3
			c-0.11-0.05-0.15-0.15-0.15-0.27c0-0.28,0.18-0.45,0.53-0.49l0.08-0.01c0.4-0.11,0.74,0.02,1.01,0.12c0.27,0.1,0.37,0.1,0.44,0.06
			c-0.04-0.23-0.27-0.47-0.47-0.67c-0.35-0.25-0.8-0.36-1.26-0.47c-0.71-0.17-1.45-0.35-1.94-1.03c-0.04-0.06-0.06-0.12-0.06-0.19
			c0-0.08,0.03-0.17,0.1-0.23l0.09-0.09c0.08-0.08,0.19-0.11,0.3-0.09c0.89,0.19,1.77,0,2.35-0.5c0.35-0.46,0.79-1.01,1.47-1.24
			c0.48-0.38,0.59-1.01,0.59-1.84c0.04-0.42,0.21-0.78,0.5-1.07c0.01-0.01,0.63-0.31,0.63-0.31c0.2-0.06,0.28-0.1,0.32-0.13
			c-0.37-0.18-0.78-0.35-1.21-0.31c-0.07,0.01-0.13-0.01-0.19-0.04c-0.19-0.1-0.25-0.25-0.26-0.35c0-0.02,0-0.04,0-0.06
			c0-0.22,0.16-0.37,0.26-0.47l0.05-0.05c0.02-0.02,0.06-0.06,0.08-0.08l0.69-0.4c0.91-0.48,1.47-0.84,1.47-1.59
			c0-0.01,0-0.02,0-0.03c-0.02-0.04-0.02-0.06-0.03-0.08c-0.11,0.04-0.21,0.09-0.33,0.19l-0.48,0.32c-0.44,0.25-0.95,0.36-1.44,0.46
			c-0.49,0.1-0.94,0.2-1.33,0.44c-0.05,0.03-0.11,0.05-0.17,0.05c-0.18,0-0.34-0.1-0.4-0.26c-0.02-0.06-0.04-0.12-0.04-0.19
			c0-0.15,0.06-0.3,0.15-0.39c0.15-0.21,0.39-0.34,0.61-0.47c0.26-0.15,0.42-0.24,0.5-0.44l0.09-0.25c0.13-0.39,0.31-0.87,0.79-1.08
			c0.06-0.03,0.44-0.23,0.44-0.23c0.09-0.04,0.12-0.08,0.18-0.11c-0.03-0.02-0.02-0.02-0.07-0.04c-0.77-0.24-1.52,0.36-1.89,0.73
			c-0.03,0.03-0.06,0.05-0.1,0.07l-0.29,0.12c-0.5,0.21-1.02,0.42-1.36,0.79c-0.04,0.04-0.08,0.07-0.13,0.08
			c-0.15,0.05-0.32,0.02-0.45-0.07c-0.13-0.1-0.21-0.24-0.21-0.41c-0.12-1.19,0.83-2.06,1.59-2.75l0.18-0.17
			c0.02-0.02,0.11-0.06,0.14-0.08l0.47-0.24c0.37-0.23,0.82-0.52,1.39-0.26c0.45,0.24,0.8,0.4,1.18,0.28
			c0.25-0.09,0.41-0.31,0.59-0.56c0.18-0.24,0.38-0.52,0.7-0.71c0.33-0.12,0.6-0.03,0.82,0.04c0.09,0.03,0.26,0.08,0.31,0.07
			c0,0,0.04-0.07,0.04-0.07c0.01-0.03,0.01-0.06,0.01-0.09c0-0.21-0.15-0.42-0.38-0.71l-0.27-0.37c-0.04-0.05-0.05-0.1-0.05-0.16
			c0-0.04,0.01-0.09,0.03-0.13c0.09-0.23,0.13-0.47,0.13-0.71c0-0.56-0.24-1.12-0.68-1.5c-0.13-0.07-0.42-0.2-0.71-0.19
			c0.04,0.06,0.1,0.16,0.1,0.16l0.28,0.6c0.01,0.07,0.01,0.14,0.01,0.21c0,1.32-1.14,1.89-2.07,2.36l-0.8,0.43
			c-1.87,0.94-4.34,2.45-4.47,4.92c0.03,1.27,0.55,2.48,1.53,3.48c0.02,0.02,0.04,0.04,0.05,0.06l0.34,0.54
			c0.38,0.58,0.81,1.22,0.81,1.99c0,0.19-0.03,0.38-0.08,0.58C29.91,34,29.06,34,28.74,34c-1.84-0.12-2.85-1.98-3.58-3.34
			l-0.11-0.21c-0.01-0.02-0.15-0.33-0.15-0.33c-0.2-0.43-0.41-0.87-0.46-1.41c-0.01-0.1,0.02-0.19,0.09-0.26
			c0.09-0.09,0.33-0.27,0.67-0.04c0.04,0.03,0.37,0.56,0.37,0.56c0.04,0.1,0.07,0.15,0.1,0.19c0.03-0.09,0.08-0.18,0.08-0.28
			c0-0.32-0.14-0.67-0.27-1.02l-0.04-0.11c-0.1-0.16-0.3-0.34-0.51-0.53c-0.28-0.25-0.56-0.5-0.73-0.87
			c-0.01-0.04-0.02-0.07-0.03-0.11c0-0.02,0-0.04,0-0.05c0-0.44,0.39-0.55,0.54-0.58c0,0,0.06-0.02,0.09-0.03
			c-0.13-0.47-0.21-0.96-0.21-1.47c0-0.25,0.02-0.5,0.05-0.75c0-0.01,0-0.01,0-0.02c0-0.02-0.01-0.02-0.01-0.03
			c0,0,0-0.01,0.02-0.03l0.42-0.45c0.13-0.08,0.14-0.1,0.14-0.13c-0.14-0.54-0.18-1.08-0.18-1.61c0-0.21,0.01-0.43,0.01-0.64
			c0.01-0.05,0.15-0.53,0.15-0.53c0.08-0.22,0.14-0.38,0.14-0.53c0-0.05-0.02-0.1-0.04-0.15c-0.29-0.18-0.34-0.49-0.35-0.66
			c0,0-0.03-0.16-0.03-0.17c-0.01,0-0.02-0.01-0.02-0.01c0.04,0.02,0.05,0.02,0.09,0.02c-0.77,0-1.39-0.29-1.98-0.56l-0.68-0.3
			c-0.16-0.04-0.31,0.02-0.55,0.12l-0.36,0.13c-0.01,0-0.38,0.07-0.38,0.07c-0.4,0.06-0.74,0.12-0.96,0.36
			c-0.12,0.15-0.13,0.34-0.12,0.67l0,0.21c0,0.04,0,0.07-0.02,0.1c-0.06,0.19-0.19,0.28-0.28,0.31c-0.21,0.08-0.41-0.03-0.51-0.08
			l-0.05-0.02c-0.58-0.32-0.81-0.89-0.65-1.49c0.03-0.1-0.06-0.19-0.1-0.22c-0.14-0.09-0.41-0.17-0.64-0.09
			c-0.18,0.06-0.27,0.25-0.41,0.56c0,0-0.05,0.1-0.08,0.17c0,0.02,0,0.05,0,0.07c0,0.2,0.05,0.41,0.13,0.54
			c0.25,0.26,0.62,0.46,1.01,0.68l0.94,0.6c0.06,0.04,0.08,0.08,0.1,0.15c0.03,0.1,0.05,0.2,0.05,0.29c0,0.34-0.18,0.62-0.33,0.83
			c0.01,0.01,0.02,0.02,0.02,0.02c0.11,0.08,0.31,0.23,0.31,0.5c0,0.04,0,0.08-0.01,0.12c-0.02,0.12-0.12,0.22-0.24,0.25
			c-0.57,0.14-1.13,0.02-1.56-0.33c-0.01-0.01-0.28-0.37-0.28-0.37c-0.09-0.15-0.14-0.21-0.19-0.23c-0.04,0.04-0.1,0.17-0.13,0.25
			l-0.13,0.28c0.02-0.04-0.03,0.23-0.03,0.23c-0.03,0.24-0.06,0.53-0.29,0.74c-0.07,0.06-0.16,0.09-0.25,0.08l-0.26-0.03
			c-1.19-0.4-2.26-0.99-3.45-1.88c-0.52-0.39-0.9-0.92-1.28-1.43l-0.29-0.39c-0.02-0.03-0.04-0.06-0.05-0.1l-0.11-0.37
			c-0.2-0.72-0.38-1.2-0.89-1.35C10,17.51,9.94,17.53,9.91,17.53L9.91,17.53z M10.68,21.78L10.68,21.78
			C10.68,21.78,10.68,21.78,10.68,21.78L10.68,21.78L10.68,21.78z M8.35,21.32c0.04-0.02,0.09-0.01,0.13-0.03
			C8.43,21.29,8.39,21.3,8.35,21.32L8.35,21.32z M19.04,21.7c0.05-0.06,0.08-0.07,0.08-0.11v0C19.09,21.62,19.06,21.67,19.04,21.7
			L19.04,21.7z M24.79,25.66c0,0.01,0.02,0,0.04,0.06c-0.01-0.03-0.01-0.07-0.02-0.11C24.79,25.64,24.79,25.65,24.79,25.66
			L24.79,25.66z M17.72,30.58c0,0,0.01,0,0.01,0c-0.01,0-0.02,0-0.04-0.02L17.72,30.58L17.72,30.58z M17.75,30.64
			c0-0.04,0.01-0.05,0.01-0.06c0,0,0,0,0,0C17.76,30.61,17.75,30.64,17.75,30.64L17.75,30.64z M11.44,32.52c0.01,0,0.01,0,0.02,0
			C11.46,32.52,11.46,32.52,11.44,32.52L11.44,32.52z M22.01,38.79c0,0.04,0.01,0.07,0.02,0.11C22.02,38.86,22.02,38.82,22.01,38.79
			C22.01,38.78,22.01,38.79,22.01,38.79L22.01,38.79z M22.36,41.91c0.03,0,0.09,0,0.09,0C22.43,41.91,22.38,41.91,22.36,41.91
			L22.36,41.91z"/>
		<path class="st3" d="M0.68,17.5c0-5.16,0-10.91,0-17.64h44.13c0,0-0.01,2.63-0.01,17.75c0,22.35-22.25,35.45-22.25,35.45
			S0.68,39.3,0.68,17.5L0.68,17.5z"/>
		<path class="st4" d="M31.48,43.22L31.48,43.22C31.48,43.22,31.48,43.22,31.48,43.22L31.48,43.22L31.48,43.22L31.48,43.22
			L31.48,43.22L31.48,43.22l0.02-0.01h0h0h0.01h0h0c-0.15-0.12-0.32-0.36-0.42-0.43c-0.17-0.78,1.04-1.3,0.43-2.14
			c-0.14-0.49-0.03-1.13-0.52-1.5c-0.35-0.29-0.81-0.35-1.21-0.61c0-0.2,0.26-0.15,0.4-0.2c0.64-0.17,1.21,0.61,1.68,0.03
			c0.06-0.43-0.35-0.81-0.64-1.1c-0.95-0.66-2.4-0.4-3.12-1.41l0.09-0.09c0.92,0.2,1.93,0.03,2.63-0.58
			c0.4-0.52,0.81-1.04,1.44-1.21c0.64-0.49,0.72-1.3,0.72-2.11c0.03-0.32,0.17-0.61,0.4-0.84c0.35-0.32,1.24-0.2,1.07-0.87
			c-0.49-0.26-1.01-0.49-1.59-0.43c-0.26-0.14,0.06-0.34,0.14-0.46c0.92-0.61,2.37-0.98,2.31-2.34c-0.09-0.14-0.06-0.37-0.29-0.4
			c-0.41,0.06-0.64,0.43-1.01,0.61c-0.87,0.49-1.96,0.41-2.8,0.92c-0.17,0-0.12-0.23-0.06-0.29c0.32-0.43,0.95-0.46,1.18-1.01
			c0.17-0.43,0.26-1.01,0.75-1.18c0.29-0.23,0.75-0.23,0.92-0.58c-0.03-0.2-0.26-0.32-0.43-0.38c-0.84-0.26-1.65,0.23-2.22,0.81
			c-0.61,0.26-1.3,0.49-1.76,0.98c-0.09,0.03-0.23-0.03-0.23-0.17c-0.12-1.16,0.92-1.99,1.67-2.69c0.55-0.15,1.01-0.81,1.65-0.52
			c0.43,0.23,0.89,0.46,1.42,0.29c0.64-0.23,0.78-0.95,1.36-1.3c0.43-0.14,1.04,0.49,1.3-0.11c0.14-0.64-0.38-1.01-0.66-1.47
			c0.35-0.89,0.09-1.93-0.64-2.57c-0.35-0.2-0.78-0.35-1.18-0.23c-0.32,0.41,0.29,0.66,0.32,1.07c0.15,1.64-1.65,2.02-2.71,2.71
			c-2.02,1.01-4.48,2.57-4.62,5.17c0.03,1.44,0.64,2.72,1.62,3.73c0.52,0.89,1.36,1.73,1.04,2.86c-0.2,0.46-0.75,0.52-1.18,0.52
			c-1.73-0.12-2.68-2.05-3.41-3.38c-0.23-0.52-0.52-1.01-0.58-1.62c0.09-0.09,0.17-0.06,0.26,0c0.32,0.29,0.29,0.98,0.84,0.89
			c0.43-0.61,0.12-1.33-0.11-1.93c-0.32-0.55-0.98-0.84-1.24-1.42c-0.03-0.43,0.61-0.17,0.64-0.61c-0.23-0.75-0.26-1.53-0.17-2.23
			c0.12-0.32,0.58-0.29,0.58-0.69c-0.2-0.72-0.2-1.44-0.17-2.22c0.09-0.46,0.46-0.95,0.2-1.44c-0.52-0.14-0.09-0.78-0.58-0.92
			c-0.98,0-1.7-0.52-2.54-0.84c-0.43-0.11-0.75,0.14-1.1,0.23c-0.55,0.12-1.13,0.12-1.5,0.52c-0.26,0.32-0.2,0.66-0.2,1.1
			c-0.09,0.26-0.32,0.03-0.43,0c-0.4-0.23-0.55-0.66-0.43-1.1c0.06-0.2-0.03-0.41-0.2-0.55c-0.26-0.17-0.64-0.26-0.95-0.14
			c-0.4,0.14-0.52,0.61-0.69,0.95c-0.03,0.29,0.03,0.64,0.17,0.87c0.58,0.61,1.39,0.84,2.02,1.36c0.11,0.35-0.12,0.69-0.35,0.98
			c-0.03,0.32,0.43,0.32,0.38,0.61c-0.46,0.12-0.92,0.03-1.27-0.26c-0.23-0.2-0.29-0.64-0.66-0.69c-0.35,0-0.41,0.46-0.55,0.69
			c-0.12,0.26-0.03,0.69-0.26,0.9l-0.26-0.03c-1.18-0.41-2.25-1.04-3.29-1.82c-0.61-0.46-1.04-1.16-1.5-1.76
			c-0.23-0.72-0.35-1.73-1.27-1.96c-0.2,0.03-0.46,0.06-0.49,0.29l-0.06,0.29c-0.46,0-0.92-0.32-1.42-0.15
			c-0.23,0.15-0.46,0.32-0.61,0.55c-0.03,0.52,0.61,0.32,0.69,0.72c0,0.37,0.29,0.69,0.46,0.95c-0.11,0.2-0.35,0.32-0.46,0.52
			l-0.29,0.72c0.12,0.23,0.26,0.52,0.55,0.55c0.4-0.17,0.75,0.12,1.18,0.06c0.26,0.03,0.69-0.2,0.72,0.23
			c0.14,0.35,0,0.66-0.03,0.98c-0.38,0.55-0.87,0.95-1.41,1.21c-0.17,0.11-0.17,0.37-0.12,0.55c0.2,0.29,0.66,0.17,0.98,0.14
			c0.61-0.03,1.07-0.38,1.64-0.43c0.14,0.29,0.38,0.64,0.66,0.78c0.46,0.11,0.58-0.52,1.04-0.35c0.38,0.29,0.26,0.84,0.61,1.18
			c0.03,0.2-0.17,0.2-0.29,0.29c-0.49,0.17-1.18,0-1.56,0.4c-0.06,0.23,0.14,0.43,0.32,0.52c0.43,0.23,0.98,0.29,1.5,0.38
			c0.46,0.06,0.95-0.12,1.39,0l-0.14,0.23l-1.42,0.95c-0.64,0.26-1.33,0.41-1.91,0.72c-0.89,0.23-1.27-0.9-2.08-0.84
			c-0.35,0-0.58,0.11-0.81,0.32c-0.2,0.2-0.23,0.52-0.17,0.78c0.12,0.26,0.49,0.15,0.49,0.43c-0.03,0.81-0.72,1.39-0.78,2.22
			c-0.03,0.2,0.03,0.46,0.26,0.55c0.14,0.09,0.38,0.03,0.49-0.09c0.17-0.17,0.17-0.43,0.46-0.49c0.49,0.06,1.01,0.06,1.36-0.32
			c0.17-0.03,0.35,0.14,0.35,0.29c0,0.2,0,0.43,0.2,0.52c0.72,0.03,1.07-0.72,1.39-1.24c0.32-0.06,0.66-0.29,0.98-0.08
			c0.12,0.49-0.29,0.84-0.38,1.3c0.03,0.11,0.17,0.23,0.32,0.26c0.87-0.11,1.36-0.92,1.88-1.56c0.09-0.18,0.17-0.4,0.43-0.4
			c0.66,0.2,0.84-0.61,1.24-0.9h0.17c0.06,0.2-0.09,0.35,0,0.55c0.29,0.32,0.61-0.03,0.89-0.09l0.61-0.38
			c0.72,0.23,1.47,0.4,2.22,0.58c0.61,0.23,0,0.87,0.38,1.24c-0.09,0.2-0.35,0.26-0.61,0.26c-1.27,0.17-2.74-0.17-3.75,0.78
			l-0.61,0.61c-0.95,0.03-1.44,0.84-2.31,0.98c-0.58,0.4-1.47-0.17-1.85,0.49c0.29,0.61,1.01,0.81,1.65,0.98
			c0.26,0.12,0.69-0.03,0.84,0.26c0.03,0.29,0.09,0.64,0.43,0.75c0.26,0.08,0.4-0.29,0.64-0.09c0.32,0.43,0.78,0.64,1.04,1.04
			c-0.2,0.37-0.69,0.14-1.04,0.14l-0.06-0.03c-0.52,0.06-1.18,0.32-1.59-0.18c-0.55-0.4-0.98-1.04-1.76-1.04
			c-0.43,0.12-0.89,0.29-0.98,0.78c-0.06,0.29,0.23,0.4,0.35,0.58c-0.52,0.35-1.07,0.89-0.9,1.59c0.06,0.15,0.12,0.32,0.32,0.32
			c0.26,0,0.46-0.23,0.72-0.09c0.06,0.44-0.06,1.1,0.46,1.3c0.4-0.06,0.69-0.49,1.13-0.17c0.43,0.2,0.78-0.2,1.16-0.32
			c0.61,0,0.84,0.58,1.04,1.01c0.37,0.29,0.89,0.75,1.41,0.46c0.35-0.49-0.32-1.13,0.35-1.44c0.4-0.12,0.75,0.03,1.15-0.06
			c0.64,0.06,1.42,0.12,1.76-0.58l0.58-0.98l0.12-0.61c0.38-0.11,0.92,0.49,1.1-0.09c-0.2-0.58-0.26-1.16-0.17-1.79
			c0.12-0.43,0.32-0.84,0.61-1.13l0.15,0.06c0.17,0.72,0.2,1.44,0.52,2.11c-0.06,0.66-0.4,1.24-0.49,1.91
			c-0.17,0.69-0.67,1.24-1.3,1.56c-0.14,0.11-0.26,0.32-0.17,0.52c0.17,0.32,0.61,0.15,0.92,0.2c0.9-0.12,1.73-0.55,2.34-1.21
			c0.64,0.17,0.95-0.61,1.53-0.26c0.61,0.46,1.7-0.35,1.93,0.64c-0.09,0.46,0.35,1.3-0.4,1.5c-0.75-0.11-1.62-1.1-2.37-0.23
			c-0.17,0.17-0.29,0.4-0.17,0.63c0.12,0.2,0.26,0.46,0.06,0.63c-0.2,0.35-0.49,0.78-0.32,1.21c0.14,0.26,0.43,0.26,0.69,0.2
			c0.43-0.17,0.84,0.2,1.27,0.23c0.38,0.29,0.75,0.64,1.24,0.6c0.2-0.11,0.17-0.38,0.32-0.55c0.32-0.26,0.98-0.2,0.98-0.78
			c0.09-0.43,0.45-0.82,0.83-1.05C30.41,43.84,31.26,43.63,31.48,43.22L31.48,43.22L31.48,43.22z"/>
		<path class="st5" d="M31.48,43.22L31.48,43.22C31.48,43.22,31.48,43.22,31.48,43.22L31.48,43.22L31.48,43.22L31.48,43.22
			L31.48,43.22L31.48,43.22l0.02-0.01h0h0h0.01h0h0c-0.15-0.12-0.32-0.36-0.42-0.43c-0.17-0.78,1.04-1.3,0.43-2.14
			c-0.14-0.49-0.03-1.13-0.52-1.5c-0.35-0.29-0.81-0.35-1.21-0.61c0-0.2,0.26-0.15,0.4-0.2c0.64-0.17,1.21,0.61,1.68,0.03
			c0.06-0.43-0.35-0.81-0.64-1.1c-0.95-0.66-2.4-0.4-3.12-1.41l0.09-0.09c0.92,0.2,1.93,0.03,2.63-0.58
			c0.4-0.52,0.81-1.04,1.44-1.21c0.64-0.49,0.72-1.3,0.72-2.11c0.03-0.32,0.17-0.61,0.4-0.84c0.35-0.32,1.24-0.2,1.07-0.87
			c-0.49-0.26-1.01-0.49-1.59-0.43c-0.26-0.14,0.06-0.34,0.14-0.46c0.92-0.61,2.37-0.98,2.31-2.34c-0.09-0.14-0.06-0.37-0.29-0.4
			c-0.41,0.06-0.64,0.43-1.01,0.61c-0.87,0.49-1.96,0.41-2.8,0.92c-0.17,0-0.12-0.23-0.06-0.29c0.32-0.43,0.95-0.46,1.18-1.01
			c0.17-0.43,0.26-1.01,0.75-1.18c0.29-0.23,0.75-0.23,0.92-0.58c-0.03-0.2-0.26-0.32-0.43-0.38c-0.84-0.26-1.65,0.23-2.22,0.81
			c-0.61,0.26-1.3,0.49-1.76,0.98c-0.09,0.03-0.23-0.03-0.23-0.17c-0.12-1.16,0.92-1.99,1.67-2.69c0.55-0.15,1.01-0.81,1.65-0.52
			c0.43,0.23,0.89,0.46,1.42,0.29c0.64-0.23,0.78-0.95,1.36-1.3c0.43-0.14,1.04,0.49,1.3-0.11c0.14-0.64-0.38-1.01-0.66-1.47
			c0.35-0.89,0.09-1.93-0.64-2.57c-0.35-0.2-0.78-0.35-1.18-0.23c-0.32,0.41,0.29,0.66,0.32,1.07c0.15,1.64-1.65,2.02-2.71,2.71
			c-2.02,1.01-4.48,2.57-4.62,5.17c0.03,1.44,0.64,2.72,1.62,3.73c0.52,0.89,1.36,1.73,1.04,2.86c-0.2,0.46-0.75,0.52-1.18,0.52
			c-1.73-0.12-2.68-2.05-3.41-3.38c-0.23-0.52-0.52-1.01-0.58-1.62c0.09-0.09,0.17-0.06,0.26,0c0.32,0.29,0.29,0.98,0.84,0.89
			c0.43-0.61,0.12-1.33-0.11-1.93c-0.32-0.55-0.98-0.84-1.24-1.42c-0.03-0.43,0.61-0.17,0.64-0.61c-0.23-0.75-0.26-1.53-0.17-2.23
			c0.12-0.32,0.58-0.29,0.58-0.69c-0.2-0.72-0.2-1.44-0.17-2.22c0.09-0.46,0.46-0.95,0.2-1.44c-0.52-0.14-0.09-0.78-0.58-0.92
			c-0.98,0-1.7-0.52-2.54-0.84c-0.43-0.11-0.75,0.14-1.1,0.23c-0.55,0.12-1.13,0.12-1.5,0.52c-0.26,0.32-0.2,0.66-0.2,1.1
			c-0.09,0.26-0.32,0.03-0.43,0c-0.4-0.23-0.55-0.66-0.43-1.1c0.06-0.2-0.03-0.41-0.2-0.55c-0.26-0.17-0.64-0.26-0.95-0.14
			c-0.4,0.14-0.52,0.61-0.69,0.95c-0.03,0.29,0.03,0.64,0.17,0.87c0.58,0.61,1.39,0.84,2.02,1.36c0.11,0.35-0.12,0.69-0.35,0.98
			c-0.03,0.32,0.43,0.32,0.38,0.61c-0.46,0.12-0.92,0.03-1.27-0.26c-0.23-0.2-0.29-0.64-0.66-0.69c-0.35,0-0.41,0.46-0.55,0.69
			c-0.12,0.26-0.03,0.69-0.26,0.9l-0.26-0.03c-1.18-0.41-2.25-1.04-3.29-1.82c-0.61-0.46-1.04-1.16-1.5-1.76
			c-0.23-0.72-0.35-1.73-1.27-1.96c-0.2,0.03-0.46,0.06-0.49,0.29l-0.06,0.29c-0.46,0-0.92-0.32-1.42-0.15
			c-0.23,0.15-0.46,0.32-0.61,0.55c-0.03,0.52,0.61,0.32,0.69,0.72c0,0.37,0.29,0.69,0.46,0.95c-0.11,0.2-0.35,0.32-0.46,0.52
			l-0.29,0.72c0.12,0.23,0.26,0.52,0.55,0.55c0.4-0.17,0.75,0.12,1.18,0.06c0.26,0.03,0.69-0.2,0.72,0.23
			c0.14,0.35,0,0.66-0.03,0.98c-0.38,0.55-0.87,0.95-1.41,1.21c-0.17,0.11-0.17,0.37-0.12,0.55c0.2,0.29,0.66,0.17,0.98,0.14
			c0.61-0.03,1.07-0.38,1.64-0.43c0.14,0.29,0.38,0.64,0.66,0.78c0.46,0.11,0.58-0.52,1.04-0.35c0.38,0.29,0.26,0.84,0.61,1.18
			c0.03,0.2-0.17,0.2-0.29,0.29c-0.49,0.17-1.18,0-1.56,0.4c-0.06,0.23,0.14,0.43,0.32,0.52c0.43,0.23,0.98,0.29,1.5,0.38
			c0.46,0.06,0.95-0.12,1.39,0l-0.14,0.23l-1.42,0.95c-0.64,0.26-1.33,0.41-1.91,0.72c-0.89,0.23-1.27-0.9-2.08-0.84
			c-0.35,0-0.58,0.11-0.81,0.32c-0.2,0.2-0.23,0.52-0.17,0.78c0.12,0.26,0.49,0.15,0.49,0.43c-0.03,0.81-0.72,1.39-0.78,2.22
			c-0.03,0.2,0.03,0.46,0.26,0.55c0.14,0.09,0.38,0.03,0.49-0.09c0.17-0.17,0.17-0.43,0.46-0.49c0.49,0.06,1.01,0.06,1.36-0.32
			c0.17-0.03,0.35,0.14,0.35,0.29c0,0.2,0,0.43,0.2,0.52c0.72,0.03,1.07-0.72,1.39-1.24c0.32-0.06,0.66-0.29,0.98-0.08
			c0.12,0.49-0.29,0.84-0.38,1.3c0.03,0.11,0.17,0.23,0.32,0.26c0.87-0.11,1.36-0.92,1.88-1.56c0.09-0.18,0.17-0.4,0.43-0.4
			c0.66,0.2,0.84-0.61,1.24-0.9h0.17c0.06,0.2-0.09,0.35,0,0.55c0.29,0.32,0.61-0.03,0.89-0.09l0.61-0.38
			c0.72,0.23,1.47,0.4,2.22,0.58c0.61,0.23,0,0.87,0.38,1.24c-0.09,0.2-0.35,0.26-0.61,0.26c-1.27,0.17-2.74-0.17-3.75,0.78
			l-0.61,0.61c-0.95,0.03-1.44,0.84-2.31,0.98c-0.58,0.4-1.47-0.17-1.85,0.49c0.29,0.61,1.01,0.81,1.65,0.98
			c0.26,0.12,0.69-0.03,0.84,0.26c0.03,0.29,0.09,0.64,0.43,0.75c0.26,0.08,0.4-0.29,0.64-0.09c0.32,0.43,0.78,0.64,1.04,1.04
			c-0.2,0.37-0.69,0.14-1.04,0.14l-0.06-0.03c-0.52,0.06-1.18,0.32-1.59-0.18c-0.55-0.4-0.98-1.04-1.76-1.04
			c-0.43,0.12-0.89,0.29-0.98,0.78c-0.06,0.29,0.23,0.4,0.35,0.58c-0.52,0.35-1.07,0.89-0.9,1.59c0.06,0.15,0.12,0.32,0.32,0.32
			c0.26,0,0.46-0.23,0.72-0.09c0.06,0.44-0.06,1.1,0.46,1.3c0.4-0.06,0.69-0.49,1.13-0.17c0.43,0.2,0.78-0.2,1.16-0.32
			c0.61,0,0.84,0.58,1.04,1.01c0.37,0.29,0.89,0.75,1.41,0.46c0.35-0.49-0.32-1.13,0.35-1.44c0.4-0.12,0.75,0.03,1.15-0.06
			c0.64,0.06,1.42,0.12,1.76-0.58l0.58-0.98l0.12-0.61c0.38-0.11,0.92,0.49,1.1-0.09c-0.2-0.58-0.26-1.16-0.17-1.79
			c0.12-0.43,0.32-0.84,0.61-1.13l0.15,0.06c0.17,0.72,0.2,1.44,0.52,2.11c-0.06,0.66-0.4,1.24-0.49,1.91
			c-0.17,0.69-0.67,1.24-1.3,1.56c-0.14,0.11-0.26,0.32-0.17,0.52c0.17,0.32,0.61,0.15,0.92,0.2c0.9-0.12,1.73-0.55,2.34-1.21
			c0.64,0.17,0.95-0.61,1.53-0.26c0.61,0.46,1.7-0.35,1.93,0.64c-0.09,0.46,0.35,1.3-0.4,1.5c-0.75-0.11-1.62-1.1-2.37-0.23
			c-0.17,0.17-0.29,0.4-0.17,0.63c0.12,0.2,0.26,0.46,0.06,0.63c-0.2,0.35-0.49,0.78-0.32,1.21c0.14,0.26,0.43,0.26,0.69,0.2
			c0.43-0.17,0.84,0.2,1.27,0.23c0.38,0.29,0.75,0.64,1.24,0.6c0.2-0.11,0.17-0.38,0.32-0.55c0.32-0.26,0.98-0.2,0.98-0.78
			c0.09-0.43,0.45-0.82,0.83-1.05C30.41,43.84,31.26,43.63,31.48,43.22L31.48,43.22L31.48,43.22z"/>
		<path class="st2" d="M18.26,17.94c-0.09,0.38-0.06,0.72,0.17,1.04c0.61,0.66,1.53,0.87,1.91,1.65l-0.23-0.03
			c-0.72-0.46-1.39-1.01-2.14-1.36c-0.29-0.2-0.49-0.52-0.43-0.89c0.06-0.26,0.14-0.55,0.43-0.61
			C18.12,17.71,18.26,17.8,18.26,17.94L18.26,17.94L18.26,17.94z"/>
		<path class="st2" d="M24.44,18.64c0.12,0.17,0.03,0.55,0.38,0.58c0.09,0,0.17,0.09,0.17,0.17c-0.03,0.29-0.09,0.61-0.17,0.9
			c-0.09,0.23-0.4,0.32-0.4,0.64c0,0.17,0.26,0.26,0.29,0.43l-0.03,1.16c-0.72,0.23-0.38,1.13-0.43,1.59
			c-0.09,0.37,0,0.75-0.03,1.13c-0.17,0.09-0.49,0.06-0.58,0.32c0,0.43,0.2,0.78,0.35,1.13c0.26,0.38,0.81,0.46,0.84,0.95
			c-0.38,0.03-0.72-0.23-1.07-0.35c-0.55-0.29-0.92-0.86-1.24-1.38c-0.09-0.09-0.2-0.09-0.29,0.03c-0.06,0.35-0.09,0.84-0.4,1.07
			c-0.37-0.23-0.35-1.16-0.95-0.87c-0.2,1.24-1.04,2.22-1.76,3.26c-0.17,0.06-0.2,0.32-0.43,0.26c0.38-0.95,0.66-2.11,0.29-3.18
			c-0.09-0.2-0.29-0.15-0.43-0.06c-0.17,0.11-0.26,0.4-0.52,0.32c-0.2-0.32,0.2-0.81-0.26-1.01c-0.4,0.09-0.63,0.43-0.98,0.61
			c-0.87,0.52-1.91,0.72-2.94,0.75c-0.2,0-0.37-0.06-0.49-0.15c0.26-0.26,0.64-0.32,0.95-0.49c1.21-0.72,2.02-2.05,3-3.03
			c-0.09-0.43-0.46-0.95-0.06-1.36c0.32-0.03,0.43,0.35,0.69,0.43c0.43,0.23,0.98,0.38,1.44,0.17c0.4-0.09,0.69-0.46,0.72-0.84
			c0.03-0.17-0.09-0.26-0.2-0.32c-0.11,0-0.26,0-0.32-0.12c0-0.2,0.15-0.35,0.32-0.37c0.49,0.03,0.98,1.07,1.33,0.2
			c0.2-0.69-0.43-1.21-0.92-1.64c-0.12-0.14-0.2-0.29-0.14-0.49c0.37-0.23-0.09-0.55,0.2-0.81c0.49-0.37,1.24-0.14,1.76-0.52
			C23,17.77,23.63,18.44,24.44,18.64L24.44,18.64L24.44,18.64z"/>
		<path class="st2" d="M10.7,18.38c0.03,0.15,0.06,0.29,0,0.4c-0.12,0.12-0.26,0-0.35-0.06c-0.17-0.14-0.26-0.38-0.2-0.52
			C10.18,17.6,10.7,18.15,10.7,18.38L10.7,18.38L10.7,18.38z"/>
		<path class="st2" d="M10.29,19.24c0.78,0.38,1.36,1.15,1.91,1.82c1.24,1.04,2.57,1.93,4.07,2.34c0.06,0.23-0.12,0.44-0.29,0.61
			c-0.49,0.52-0.9,1.13-1.41,1.59c-0.12,0.03-0.23,0.03-0.32-0.03c-0.52-0.49-0.46-1.5-1.36-1.53c-0.29-0.03-0.52,0.35-0.81,0.15
			c-0.29-0.23,0.09-0.75-0.35-0.87c-0.49,0.2-0.9,0.75-1.47,0.66c0.38-0.63,1.04-1.33,0.69-2.17c-0.09-0.38-0.32-0.78-0.66-0.92
			c-0.35-0.03-0.55,0.38-0.89,0.2c-0.14-0.32-0.78-0.17-0.52-0.58c0.2-0.35,1.07-0.4,0.72-0.98c-0.23-0.32-0.78-0.15-0.84-0.58
			c0.06-0.26-0.17-0.61,0-0.78C9.46,18.12,9.89,18.81,10.29,19.24L10.29,19.24L10.29,19.24z"/>
		<path class="st2" d="M35.65,19.59c0.09,0.46-0.35,0.75-0.23,1.18c0.12,0.23,0.49,0.29,0.46,0.55c-1.1,0.03-1.3,1.47-2.4,1.44
			c-0.46-0.09-0.81-0.58-1.36-0.35c-1.41,0.66-2.94,1.65-3.32,3.32c-0.17,0.64-0.12,1.36,0.35,1.88c0.12,0.06,0.26,0.06,0.38,0
			c0.29-0.52,0.52-1.21,1.21-1.36c0.41-0.14,0.81-0.29,1.18-0.52c0.06,0,0.14-0.06,0.17,0.06c-0.17,0.49-0.4,1.1-0.95,1.27
			c-0.41,0.35-0.78,0.75-0.84,1.27c-0.03,0.26-0.06,0.6,0.14,0.81c0.2,0.17,0.43-0.06,0.61-0.17c0.75-0.92,1.88-1.04,3-1.1
			c0.06,0.09-0.09,0.26-0.2,0.29c-0.95,0.32-1.85,1.1-2.17,2.05c0.03,0.14,0.12,0.26,0.23,0.32c0.46-0.06,0.84-0.35,1.33-0.29
			c0.12,0.32-0.38,0.32-0.49,0.58c-0.89,0.78,0,2.54-1.5,2.8c-0.43,0.12-0.38,0.64-0.66,0.89c-0.49,0.64-1.3,0.81-2.11,0.72
			c-0.58,0.06-1.07-0.78-1.56-0.23c0.06,0.58,0.52,0.89,0.81,1.39c0.72,0.69,1.73,0.75,2.66,1.04c0.12,0.03,0.2,0.12,0.26,0.23
			c0,0.2-0.26,0.15-0.43,0.12c-0.58,0.09-1.24,0.17-1.82-0.06c-0.09-0.03-0.17,0.09-0.2,0.17c0.09,0.64,0.81,0.87,1.24,1.21
			c0.43,0.2,1.01,0.14,1.21,0.66v0.66c0.2,0.32,0.32,0.72,0.23,1.13c-0.4,0.46-0.69,1.07-0.38,1.67c-0.17,0.14-0.43,0-0.61,0.12
			c-0.2,0.43-0.75,0.49-0.9,0.92c-0.03,0.35-0.23,0.67-0.58,0.72c-0.29-0.03-0.49,0.12-0.75,0.06c-0.17-0.2,0.09-0.52-0.23-0.63
			c-0.4-0.09-0.55,0.55-0.98,0.32c-0.2-0.11-0.4-0.2-0.49-0.41c-0.03-0.26,0.23-0.34,0.4-0.46c0.95-0.11,2.19-0.29,2.54-1.33
			c0.06-0.49-0.17-0.89-0.09-1.33c-0.14-0.55-0.69-0.9-1.24-0.96c-0.52-0.14-1.1,0.06-1.47-0.31c-0.14-0.12-0.32-0.23-0.49-0.14
			c-0.14,0.03-0.2,0.23-0.38,0.14c-0.14-0.14-0.35-0.35-0.52-0.14c-0.35,0.69-0.87,1.44-1.7,1.59c-0.12-0.2,0.11-0.43,0.2-0.66
			c0.26-0.55,0.46-1.15,0.58-1.76c0.23-0.32,0.49-0.72,0.32-1.16c-0.35-0.98-0.75-2.05-0.46-3.18c0.2-1.33-0.12-2.57-1.1-3.47
			c-0.55-0.32-1.01-0.87-1.67-0.98c-0.43-0.14-1.07,0.03-1.3-0.4c0.06-0.46,0.55-0.72,0.75-1.13l0.75-1.15
			c0.32-0.06,0.23,0.4,0.55,0.37c0.61,0,0.58-1.01,1.21-0.69c0.29,0.4,0.75,0.55,1.04,0.89c0.4,1.65,1.01,3.23,2.14,4.56
			c0.87,1.13,2.19,1.96,3.58,1.56c0.37-0.32,0.89-0.66,0.98-1.21c0.38-2.63-2.97-3.93-2.71-6.53c0.23-2.46,2.74-3.78,4.74-4.74
			c1.1-0.58,2.48-1.36,2.57-2.77c-0.03-0.14,0-0.23,0.06-0.38C35.65,18.72,35.62,19.22,35.65,19.59L35.65,19.59L35.65,19.59z"/>
		<path class="st2" d="M17.71,27.39c0.32,0.06,0.69-0.35,0.84,0.09c-0.06,0.61-0.09,1.3-0.38,1.82c-0.29,0.29-0.72,0.06-1.04,0.2
			c-0.43,0.12-0.52,1.18-1.07,0.49c-0.23-0.09-0.38,0.14-0.49,0.26c-0.23,0.55-0.46,1.1-0.87,1.53c-0.09,0.06-0.23,0.12-0.32,0.03
			c-0.06-0.37,0.23-1.04-0.32-1.15c-0.23-0.03-0.43,0.12-0.63,0.2c-0.43-0.03-1.01-0.03-1.24,0.4c-0.06,0.2-0.09,0.49-0.35,0.52
			c-0.26-0.12-0.61-0.2-0.72-0.55c-0.12-0.09-0.29-0.2-0.43-0.06c-0.23,0.23-0.32,0.63-0.69,0.63c-0.29,0-0.55-0.08-0.78-0.2
			c0.06-0.66,0.81-0.75,1.27-1.01c0.92-0.2,1.62-0.78,2.54-0.95c1.44-0.55,2.6-1.62,3.72-2.72c0.17-0.06,0.35-0.14,0.52-0.14
			C17.4,27.01,17.4,27.33,17.71,27.39L17.71,27.39L17.71,27.39z"/>
		<path class="st2" d="M10.67,30.04c-0.26,0.17-0.66,0.29-0.98,0.14c-0.17-0.17-0.09-0.49-0.11-0.75c0.09-0.2,0.35-0.14,0.49-0.06
			C10.26,29.58,10.67,29.7,10.67,30.04L10.67,30.04L10.67,30.04z"/>
		<path class="st2" d="M23.03,33.77c-0.03,0.43-0.06,0.75-0.29,1.13c-0.49,0.46-0.95,1.07-1.13,1.76c0,0.49-0.06,0.96-0.09,1.42
			c-0.14,0.12-0.26-0.06-0.35-0.14c-0.23-0.35-0.17-1.13-0.78-1.01c-0.32,0.35-0.63,0.87-0.43,1.33c0.26,0.38,0.78,0.67,0.49,1.16
			c-0.43,0.23-0.32,0.9-0.89,0.95c-0.87,0.12-1.76-0.26-2.45,0.35c-0.23,0.2-0.38,0.49-0.49,0.78c-0.4,0.06-0.29-0.49-0.49-0.72
			c-0.14-0.23-0.43-0.09-0.64-0.2c-0.32-0.12-0.64-0.46-1.01-0.2c-0.32,0.17-0.69,0.58-1.07,0.26l-0.52-0.14
			c-0.03-0.17,0.17-0.4,0.03-0.58l-1.01-0.46c-0.06-0.09,0.03-0.2,0.09-0.26c0.84-0.55,1.79,0.09,2.77-0.09
			c0.64-0.23,1.24-0.11,1.93-0.09c0.37,0.03,0.84,0.12,1.07-0.2c0.14-0.2,0.2-0.49,0.06-0.72c-0.29-0.63-1.21-0.78-1.33-1.53
			c-0.06-0.14-0.17-0.29-0.32-0.35c-0.23-0.08-0.38,0.17-0.61,0.06c-0.06-0.2-0.12-0.46-0.35-0.55c-0.43,0-0.95,0.2-1.33-0.09
			c0.06-0.23,0.35-0.17,0.52-0.29c0.61-0.12,1.13-0.52,1.67-0.78l0.84-0.12c0.84-1.36,2.54-1.27,3.98-1.33l1.42-0.43
			C22.83,32.79,22.94,33.37,23.03,33.77L23.03,33.77L23.03,33.77z"/>
		<path class="st2" d="M13.82,38.45c-0.26,0.17-0.61,0.06-0.9,0.03c-0.17-0.14-0.23-0.46-0.2-0.63
			C13.15,37.64,13.61,38.07,13.82,38.45L13.82,38.45L13.82,38.45z"/>
		<path class="st2" d="M26.72,43.12c0.03,0.14-0.17,0.12-0.23,0.12c-0.12,0.03-0.12-0.06-0.17-0.12
			C26.35,42.86,26.67,43.01,26.72,43.12L26.72,43.12L26.72,43.12z"/>
		<path class="st4" d="M22.97,19.1c0.06,0.2-0.09,0.38-0.29,0.41c-0.35,0.03-0.67,0-0.92-0.26c-0.26-0.2-0.12-0.55-0.06-0.81
			c0.11-0.14,0.32-0.14,0.46-0.06C22.48,18.55,22.74,18.84,22.97,19.1L22.97,19.1L22.97,19.1z"/>
		<path class="st4" d="M24.62,19.59c0,0.23-0.12,0.46-0.26,0.64c-0.15,0.09-0.26,0.03-0.32-0.12c-0.06-0.26,0.06-0.49,0.2-0.64
			C24.36,19.39,24.59,19.42,24.62,19.59L24.62,19.59L24.62,19.59z"/>
		<path class="st4" d="M22.77,21.67l-0.03,0.49c-0.49,0.55-0.49,1.39-1.24,1.7c-0.2,0.03-0.38-0.09-0.4-0.29
			c-0.03-0.32-0.09-0.72,0.03-1.04c0.32-0.17,0.4,0.46,0.66,0.17c0.12-0.46,0.49-0.81,0.72-1.19C22.62,21.5,22.71,21.58,22.77,21.67
			L22.77,21.67L22.77,21.67z"/>
		<polygon class="st4" points="0.7,12.68 44.79,12.68 44.79,15.72 0.7,15.72 0.7,12.68 		"/>
		<polygon class="st5" points="0.7,12.68 44.79,12.68 44.79,15.72 0.7,15.72 0.7,12.68 		"/>
		<polygon class="st2" points="33.48,13.23 38.49,13.23 38.49,15.18 33.48,15.18 33.48,13.23 		"/>
		<polygon class="st2" points="22.6,13.23 27.6,13.23 27.6,15.18 22.6,15.18 22.6,13.23 		"/>
		<polygon class="st2" points="11.63,13.23 16.64,13.23 16.64,15.18 11.63,15.18 11.63,13.23 		"/>
		<polygon class="st2" points="1.23,13.23 5.79,13.23 5.79,15.18 1.23,15.18 1.23,13.23 		"/>
		<path class="st4" d="M42.79,1.8c0.36,0.45,0.12,1.08,0.21,1.61c0.39,0.33,1.23-0.03,1.32,0.72c0.06,0.3-0.12,0.51-0.27,0.69
			c-0.27,0.27-0.75,0-0.99,0.3c-0.09,0.9,0,1.88,0,2.9c0.27,0.18,0.63,0.15,0.93,0.3c0.15,0.18,0.3,0.36,0.3,0.6
			c-0.03,0.24-0.18,0.42-0.42,0.51c-0.24,0.12-0.66,0-0.78,0.33c-0.12,0.48,0.03,1.02-0.06,1.52c-0.33,0.15-0.72,0.15-1.08,0.15
			l-3.53-0.03c-0.33,0.18-0.69,0.51-1.13,0.33c-0.75-0.48-1.76-0.33-2.63-0.36l-2.63-0.03c-0.48-0.42-0.12-1.14-0.27-1.64
			c-0.18-0.3-0.66-0.18-0.96-0.33c-0.27-0.12-0.33-0.42-0.3-0.66c0.03-0.3,0.3-0.45,0.57-0.51c0.21-0.12,0.6,0.09,0.69-0.24
			c0-0.93-0.06-1.82-0.03-2.69c-0.06-0.54-0.78-0.21-1.08-0.42c-0.27-0.18-0.3-0.51-0.24-0.81c0.24-0.51,0.84-0.39,1.28-0.54
			l0.06-0.15l0.06-1.55l0.15-0.12l4.09,0.09c0.48,0,0.9,0.21,1.35,0.36c0.87-0.66,2.15-0.33,3.2-0.51
			C41.32,1.77,42.07,1.65,42.79,1.8L42.79,1.8L42.79,1.8z"/>
		<path class="st6" d="M42.79,1.8c0.36,0.45,0.12,1.08,0.21,1.61c0.39,0.33,1.23-0.03,1.32,0.72c0.06,0.3-0.12,0.51-0.27,0.69
			c-0.27,0.27-0.75,0-0.99,0.3c-0.09,0.9,0,1.88,0,2.9c0.27,0.18,0.63,0.15,0.93,0.3c0.15,0.18,0.3,0.36,0.3,0.6
			c-0.03,0.24-0.18,0.42-0.42,0.51c-0.24,0.12-0.66,0-0.78,0.33c-0.12,0.48,0.03,1.02-0.06,1.52c-0.33,0.15-0.72,0.15-1.08,0.15
			l-3.53-0.03c-0.33,0.18-0.69,0.51-1.13,0.33c-0.75-0.48-1.76-0.33-2.63-0.36l-2.63-0.03c-0.48-0.42-0.12-1.14-0.27-1.64
			c-0.18-0.3-0.66-0.18-0.96-0.33c-0.27-0.12-0.33-0.42-0.3-0.66c0.03-0.3,0.3-0.45,0.57-0.51c0.21-0.12,0.6,0.09,0.69-0.24
			c0-0.93-0.06-1.82-0.03-2.69c-0.06-0.54-0.78-0.21-1.08-0.42c-0.27-0.18-0.3-0.51-0.24-0.81c0.24-0.51,0.84-0.39,1.28-0.54
			l0.06-0.15l0.06-1.55l0.15-0.12l4.09,0.09c0.48,0,0.9,0.21,1.35,0.36c0.87-0.66,2.15-0.33,3.2-0.51
			C41.32,1.77,42.07,1.65,42.79,1.8L42.79,1.8L42.79,1.8z"/>
		<path class="st4" d="M28.12,1.69c0.18-0.03,0.36,0.12,0.51,0.21c0.15,0.57-0.03,1.05,0.12,1.58C29.14,3.64,29.7,3.52,29.91,4
			C30,4.21,30,4.57,29.85,4.74c-0.3,0.39-0.99,0.03-1.2,0.48c-0.06,1.08-0.09,1.82,0,2.84c0.3,0.3,0.84,0.06,1.11,0.45
			c0.15,0.18,0.21,0.39,0.15,0.63c-0.24,0.39-0.75,0.39-1.17,0.48c-0.18,0.15,0,0.42-0.09,0.63c-0.15,0.39,0.21,0.87-0.24,1.11
			c-1.23,0.18-2.39-0.06-3.65,0.03l-1.2,0.03c-0.33,0.21-0.72,0.54-1.14,0.3l-0.75-0.33c-0.9,0.03-1.73-0.03-2.63,0
			c-0.6-0.03-1.43,0.24-1.82-0.33c0-0.48,0.09-0.96-0.03-1.43c-0.45-0.15-1.2,0.06-1.43-0.51c-0.06-0.18,0-0.42,0.06-0.6
			c0.33-0.48,1.08-0.06,1.41-0.45l-0.03-1.32c0.09-0.63-0.03-1.13-0.03-1.73c-0.45-0.18-1.23,0.06-1.31-0.63
			c-0.06-0.36,0.15-0.66,0.48-0.72c0.3-0.09,0.72,0.06,0.87-0.21l0.09-1.4c0.36-0.6,1.23-0.24,1.76-0.33l2.72,0.03
			c0.42,0.06,0.81,0.48,1.23,0.21C24.62,1.31,26.44,1.87,28.12,1.69L28.12,1.69L28.12,1.69z"/>
		<path class="st6" d="M28.12,1.69c0.18-0.03,0.36,0.12,0.51,0.21c0.15,0.57-0.03,1.05,0.12,1.58C29.14,3.64,29.7,3.52,29.91,4
			C30,4.21,30,4.57,29.85,4.74c-0.3,0.39-0.99,0.03-1.2,0.48c-0.06,1.08-0.09,1.82,0,2.84c0.3,0.3,0.84,0.06,1.11,0.45
			c0.15,0.18,0.21,0.39,0.15,0.63c-0.24,0.39-0.75,0.39-1.17,0.48c-0.18,0.15,0,0.42-0.09,0.63c-0.15,0.39,0.21,0.87-0.24,1.11
			c-1.23,0.18-2.39-0.06-3.65,0.03l-1.2,0.03c-0.33,0.21-0.72,0.54-1.14,0.3l-0.75-0.33c-0.9,0.03-1.73-0.03-2.63,0
			c-0.6-0.03-1.43,0.24-1.82-0.33c0-0.48,0.09-0.96-0.03-1.43c-0.45-0.15-1.2,0.06-1.43-0.51c-0.06-0.18,0-0.42,0.06-0.6
			c0.33-0.48,1.08-0.06,1.41-0.45l-0.03-1.32c0.09-0.63-0.03-1.13-0.03-1.73c-0.45-0.18-1.23,0.06-1.31-0.63
			c-0.06-0.36,0.15-0.66,0.48-0.72c0.3-0.09,0.72,0.06,0.87-0.21l0.09-1.4c0.36-0.6,1.23-0.24,1.76-0.33l2.72,0.03
			c0.42,0.06,0.81,0.48,1.23,0.21C24.62,1.31,26.44,1.87,28.12,1.69L28.12,1.69L28.12,1.69z"/>
		<path class="st4" d="M7.93,2.02c1.46-0.63,3.11-0.18,4.72-0.27c0.42,0.09,1.05-0.21,1.32,0.24c0,0.48,0,0.93,0.03,1.4
			c0.15,0.33,0.63,0.06,0.9,0.24c0.15,0.09,0.33,0.18,0.36,0.36c0.09,0.21,0.03,0.45-0.09,0.66c-0.3,0.33-0.69,0.21-1.08,0.3
			l-0.12,0.18c0.06,0.87-0.18,1.64,0,2.48c-0.03,0.18-0.09,0.42,0.12,0.54c0.42,0,0.84,0,1.14,0.27c0.12,0.21,0.12,0.48,0.06,0.72
			c-0.18,0.9-1.55-0.12-1.41,0.93c0,0.39,0.09,0.93-0.06,1.28c-1.61,0-3.26-0.12-4.78-0.03c-0.27,0.24-0.63,0.39-1.02,0.42
			c-0.33-0.06-0.57-0.24-0.84-0.42c-1.47-0.06-2.9-0.06-4.31-0.09c-0.45-0.39-0.12-1.02-0.27-1.59c-0.24-0.27-0.6-0.06-0.87-0.21
			C1.53,9.41,1.47,9.2,1.35,9.05c0-0.33,0-0.6,0.24-0.81c0.24-0.18,0.57-0.15,0.87-0.18l0.15-0.15C2.52,6.93,2.75,6,2.55,4.95
			C2.4,4.74,2.13,4.92,1.95,4.77C1.68,4.71,1.41,4.62,1.32,4.32C1.26,4.09,1.2,3.85,1.44,3.64c0.33-0.36,0.9,0.06,1.2-0.3L2.75,1.9
			c0.24-0.42,0.81-0.21,1.23-0.21c0.72-0.15,1.61-0.03,2.39,0C6.91,1.72,7.45,1.81,7.93,2.02L7.93,2.02L7.93,2.02z"/>
		<path class="st6" d="M7.93,2.02c1.46-0.63,3.11-0.18,4.72-0.27c0.42,0.09,1.05-0.21,1.32,0.24c0,0.48,0,0.93,0.03,1.4
			c0.15,0.33,0.63,0.06,0.9,0.24c0.15,0.09,0.33,0.18,0.36,0.36c0.09,0.21,0.03,0.45-0.09,0.66c-0.3,0.33-0.69,0.21-1.08,0.3
			l-0.12,0.18c0.06,0.87-0.18,1.64,0,2.48c-0.03,0.18-0.09,0.42,0.12,0.54c0.42,0,0.84,0,1.14,0.27c0.12,0.21,0.12,0.48,0.06,0.72
			c-0.18,0.9-1.55-0.12-1.41,0.93c0,0.39,0.09,0.93-0.06,1.28c-1.61,0-3.26-0.12-4.78-0.03c-0.27,0.24-0.63,0.39-1.02,0.42
			c-0.33-0.06-0.57-0.24-0.84-0.42c-1.47-0.06-2.9-0.06-4.31-0.09c-0.45-0.39-0.12-1.02-0.27-1.59c-0.24-0.27-0.6-0.06-0.87-0.21
			C1.53,9.41,1.47,9.2,1.35,9.05c0-0.33,0-0.6,0.24-0.81c0.24-0.18,0.57-0.15,0.87-0.18l0.15-0.15C2.52,6.93,2.75,6,2.55,4.95
			C2.4,4.74,2.13,4.92,1.95,4.77C1.68,4.71,1.41,4.62,1.32,4.32C1.26,4.09,1.2,3.85,1.44,3.64c0.33-0.36,0.9,0.06,1.2-0.3L2.75,1.9
			c0.24-0.42,0.81-0.21,1.23-0.21c0.72-0.15,1.61-0.03,2.39,0C6.91,1.72,7.45,1.81,7.93,2.02L7.93,2.02L7.93,2.02z"/>
		<path class="st2" d="M7.72,2.4l0.12,0.27C7.9,4.67,7.9,6.7,7.9,8.79L7.84,9.57C7.33,9.6,6.82,9.33,6.25,9.39
			c-0.57-0.06-1.2,0.06-1.7-0.09C4.25,8.61,4.46,7.93,4.4,7.18c0.03-1.49,0.06-3.32,0.06-4.93c0-0.12,0.15-0.18,0.24-0.21
			C5.74,2.13,6.88,1.86,7.72,2.4L7.72,2.4L7.72,2.4z"/>
		<path class="st2" d="M3.74,2.22c-0.27,0.21-0.63,0.6-0.51,0.96c0.12,2.51,0,4.75,0.12,7.11l0.21,0.24c1.17,0,2.45-0.12,3.59,0.09
			c0.06,0.03,0.06,0.12,0.03,0.18c-0.3,0.12-0.66,0.06-0.99,0.06L3.14,10.8c-0.21-0.18-0.12-0.6-0.12-0.84
			c0-0.3,0.09-0.66-0.24-0.84c-0.42-0.09-0.84,0.03-1.11-0.3c0.21-0.6,1.17-0.12,1.35-0.78c0.09-1.11-0.09-2.21-0.03-3.26
			c-0.12-0.6-0.78-0.42-1.2-0.51C1.74,4.22,1.65,4.13,1.68,4.01c0.36-0.36,1.08,0.06,1.35-0.45c0.12-0.48,0.03-0.93,0.09-1.37
			C3.26,2.04,3.53,2.04,3.74,2.1V2.22L3.74,2.22L3.74,2.22z"/>
		<path class="st2" d="M12.17,2.25c0,2.42,0,4.72-0.03,7.08C10.95,9.45,9.6,9.24,8.4,9.57C8.14,9.33,8.34,8.94,8.28,8.61
			c-0.06-0.78,0-1.64-0.03-2.45C8.28,5,8.2,3.68,8.28,2.55c0.18-0.36,0.6-0.48,0.99-0.48l2.81,0.03L12.17,2.25L12.17,2.25
			L12.17,2.25z"/>
		<path class="st2" d="M13.55,2.22c0.09,0.48-0.12,1.11,0.18,1.58c0.3,0.18,0.75,0.09,1.05,0.15c0.12,0.12,0.09,0.3,0.03,0.42
			c-0.33,0.33-1.02-0.09-1.2,0.45c0,1.16-0.06,2.3,0.03,3.5l0.18,0.15c0.39,0.06,0.87-0.09,1.14,0.21c0.03,0.18,0,0.36-0.18,0.42
			c-0.39,0.09-0.96-0.12-1.17,0.3c-0.09,0.48,0.06,0.96-0.09,1.43l-0.21,0.09l-4.21-0.06c-0.09-0.06,0-0.12,0.03-0.18l0.42-0.15
			l3.41,0.03c0.36-0.09,0.36-0.54,0.39-0.81c-0.03-1.67,0-3.14-0.03-4.75c-0.03-0.81,0.12-1.58-0.06-2.36
			c-0.03-0.18-0.3-0.3-0.33-0.51C13.1,2.04,13.43,2.04,13.55,2.22L13.55,2.22L13.55,2.22z"/>
		<path class="st2" d="M32.8,2.19c-0.06,0.24-0.36,0.42-0.45,0.66c0.03,2.45,0,5.11,0.09,7.65l0.21,0.12
			c1.32,0.03,2.72-0.27,3.86,0.27c0.06,0.03,0.03,0.03,0,0.06c-1.43-0.03-2.87,0.09-4.27-0.03l-0.12-0.15
			c-0.06-0.54,0.06-1.05-0.18-1.52c-0.33-0.3-1.29,0.09-1.05-0.6c0.36-0.27,0.93,0.09,1.14-0.36c0-1.26,0.06-2.36-0.03-3.53
			c-0.27-0.36-0.78-0.12-1.14-0.21c-0.12-0.12-0.21-0.3-0.09-0.45c0.39-0.33,1.52,0.09,1.32-0.84c0.12-0.39-0.18-1.14,0.36-1.17
			C32.56,2.1,32.71,2.07,32.8,2.19L32.8,2.19L32.8,2.19z"/>
		<path class="st2" d="M42.54,2.25c0.12,0.57-0.12,1.14,0.21,1.64c0.36,0.09,0.93-0.12,1.11,0.24c-0.03,0.72-1.02,0.15-1.23,0.72
			c0.09,1.13-0.09,2.06,0.03,3.29c-0.12,0.09-0.15,0.21-0.06,0.33c0.33,0.27,0.75-0.18,1.08,0.12c0.21,0.06,0.09,0.24,0.09,0.36
			c-0.27,0.39-0.93-0.06-1.11,0.45l-0.06,1.49l-0.21,0.09l-3.97-0.03c-0.06-0.06-0.03-0.09,0.03-0.12l0.48-0.18h3.02
			c0.15-0.03,0.36-0.15,0.36-0.36c-0.03-2.36-0.06-4.81-0.06-7.38l-0.36-0.72C42.03,2.04,42.45,2.01,42.54,2.25L42.54,2.25
			L42.54,2.25z"/>
		<path class="st2" d="M33.24,3.17c0,2.09,0,4.3,0,6.43c-0.06,0.18-0.27,0.27-0.39,0.39L32.74,9.9c-0.03-0.69,0.03-1.47-0.03-2.12
			V7.27c-0.03-1.4-0.03-2.96,0.03-4.39c0.12-0.12,0.24-0.36,0.39-0.42C33.24,2.73,33.19,2.9,33.24,3.17L33.24,3.17L33.24,3.17z"/>
		<path class="st2" d="M41.97,2.85C41.91,4.52,41.94,6.1,42,7.69c-0.03,0.75-0.03,1.4-0.03,2.09c-0.03,0.06-0.03,0.09-0.09,0.12
			c-0.51-0.21-0.33-0.78-0.36-1.23c0.03-0.63-0.06-1.34,0.06-1.97L41.5,6.49l0.03-3.91C41.65,2.31,41.89,2.7,41.97,2.85L41.97,2.85
			L41.97,2.85z"/>
		<path class="st2" d="M4.04,2.49c0.12,2.42-0.03,4.75,0.03,7.05c-0.03,0.12-0.15,0.27-0.3,0.27C3.59,9.06,3.62,8.35,3.68,7.6
			C3.62,6.07,3.65,4.37,3.65,2.84C3.71,2.7,3.89,2.55,4.04,2.49L4.04,2.49L4.04,2.49z"/>
		<path class="st2" d="M12.95,2.76c-0.03,2.42,0.03,4.81-0.06,6.99c-0.06,0.12-0.18-0.03-0.27-0.09c-0.15-0.36-0.03-0.81-0.03-1.17
			c-0.09-1.94,0-3.92,0-5.89C12.71,2.46,12.89,2.64,12.95,2.76L12.95,2.76L12.95,2.76z"/>
		<path class="st2" d="M37.58,5.8c-0.06,0.15-0.33,0.15-0.48,0.09l-0.15-0.06c0.09-0.33,0-0.72,0.27-0.96
			C37.49,5.06,37.46,5.48,37.58,5.8L37.58,5.8L37.58,5.8z"/>
		<path class="st2" d="M12.62,10.08c-0.09,0.18-0.36,0.09-0.54,0.15h-0.96c-0.78-0.03-1.55-0.09-2.24,0.06
			c-0.12-0.03-0.24-0.12-0.24-0.27C8.73,9.75,9.06,9.84,9.3,9.75c0.93,0.03,2.03-0.03,2.93,0C12.38,9.81,12.53,9.93,12.62,10.08
			L12.62,10.08L12.62,10.08z"/>
		<path class="st2" d="M7.6,9.96c0.03,0.15-0.12,0.3-0.27,0.36c-0.96-0.27-2-0.09-3.02-0.21l-0.03-0.03C4.34,9.9,4.49,9.75,4.7,9.75
			C5.71,9.75,6.7,9.75,7.6,9.96L7.6,9.96L7.6,9.96z"/>
		<path class="st2" d="M36.95,10.05c0.09,0.06,0.09,0.21,0,0.24c-0.36,0.42-0.81-0.09-1.29,0c-0.78-0.09-1.64,0-2.42-0.09
			c0.21-0.66,1.14-0.27,1.65-0.39C35.58,9.9,36.35,9.69,36.95,10.05L36.95,10.05L36.95,10.05z"/>
		<path class="st2" d="M41.35,9.9c0.15,0.09,0.3,0.24,0.33,0.39c-1.23,0.15-2.42-0.15-3.59,0.18c-0.18-0.03-0.24-0.24-0.18-0.36
			c0.24-0.27,0.63-0.21,0.99-0.27L41.35,9.9L41.35,9.9L41.35,9.9z"/>
		<path class="st2" d="M8.58,10.53c0.06,0.24,0.03,0.54-0.18,0.66c-0.12,0.15-0.36,0.18-0.54,0.09c-0.18-0.03-0.21-0.24-0.24-0.39
			c-0.06-0.33,0.27-0.45,0.45-0.69C8.31,10.23,8.46,10.38,8.58,10.53L8.58,10.53L8.58,10.53z"/>
		<path class="st2" d="M37.82,10.71c0.03,0.27,0.03,0.66-0.33,0.66c-0.24,0.03-0.45-0.09-0.51-0.3c-0.06-0.3,0.12-0.57,0.33-0.69
			C37.58,10.35,37.7,10.56,37.82,10.71L37.82,10.71L37.82,10.71z"/>
		<path class="st2" d="M26.89,2.31c-0.03,2.33,0.03,4.72-0.03,7.06l-0.12,0.06c-1.28,0.12-2.54-0.21-3.71,0.21
			c-0.21-0.12-0.03-0.48-0.09-0.69c0-2.03,0-4.1,0-6.22c0-0.21,0.15-0.39,0.33-0.45c0.33-0.24,0.78-0.15,1.2-0.21l2.36,0.06
			L26.89,2.31L26.89,2.31L26.89,2.31z"/>
		<path class="st2" d="M28.3,2.25c0,0.54-0.03,1.02,0.09,1.55c0.36,0.33,1.37-0.15,1.16,0.66c-0.33,0.21-0.78,0.06-1.13,0.12
			L28.33,4.7c-0.15,1.2,0.09,2.42,0,3.5c0.03,0.12,0.09,0.33,0.27,0.36c0.33,0.03,0.84-0.21,0.96,0.21
			c-0.06,0.72-0.98,0.06-1.22,0.63c-0.09,0.54,0.15,1.02-0.06,1.52l-0.15,0.09c-1.53-0.03-3.02-0.03-4.45-0.06
			c-0.06-0.03-0.03-0.12,0.03-0.15l0.27-0.15c1.2-0.12,2.51,0,3.77-0.12c0.18-0.03,0.33-0.18,0.3-0.36c0-2.27,0.03-4.63,0.03-7.17
			C28,2.64,27.64,2.43,27.58,2.1C27.79,2.1,28.18,1.98,28.3,2.25L28.3,2.25L28.3,2.25z"/>
		<path class="st2" d="M18.37,2.13c-0.06,0.27-0.3,0.36-0.42,0.57c-0.18,0.48,0.03,0.96-0.06,1.47c0.03,2.06,0,4.01,0.03,6.04
			c0,0.15,0.12,0.33,0.27,0.36l3.2,0.06c0.18,0.03,0.39,0.09,0.51,0.21c-0.06,0.18-0.3,0.12-0.45,0.15
			c-1.2-0.03-2.48,0.06-3.65-0.09l-0.12-0.09c-0.03-0.54,0.03-1.11-0.21-1.59c-0.36-0.15-0.81,0-1.2-0.12
			c-0.18-0.09-0.12-0.33,0-0.45c0.39-0.21,1.14,0.12,1.35-0.42c-0.03-1.17,0.06-2.27,0-3.47c-0.33-0.48-1.02-0.03-1.32-0.48
			c0.12-0.69,1.08-0.09,1.34-0.66l0.09-1.4C17.93,2.04,18.16,2.1,18.37,2.13L18.37,2.13L18.37,2.13z"/>
		<path class="st2" d="M18.82,2.55c0.09,2.06-0.12,3.92,0,5.98C18.64,9,19.03,9.69,18.34,9.81c-0.12-2.06-0.03-4.27-0.09-6.52
			c-0.06-0.36,0.15-0.69,0.45-0.87L18.82,2.55L18.82,2.55L18.82,2.55z"/>
		<path class="st2" d="M27.7,2.9c-0.03,2.27,0.06,4.72-0.09,6.94c-0.12,0.03-0.27-0.12-0.3-0.24c-0.03-0.93-0.12-1.85-0.06-2.84
			c0.06-1.29-0.09-2.81,0.06-4.13C27.46,2.55,27.7,2.73,27.7,2.9L27.7,2.9L27.7,2.9z"/>
		<path class="st2" d="M22.23,9.96c0.12,0.03,0.27,0.15,0.18,0.3l-0.24,0.21c-1.05-0.39-2.36-0.12-3.47-0.3
			c0.09-0.15,0.18-0.3,0.33-0.42C20.08,9.84,21.21,9.69,22.23,9.96L22.23,9.96L22.23,9.96z"/>
		<path class="st2" d="M26.98,9.81c0.15,0.09,0.33,0.24,0.33,0.39l-0.15,0.06c-1.25,0.03-2.54-0.15-3.71,0.15
			c-0.18,0.03-0.39,0-0.42-0.21c0.12-0.27,0.48-0.36,0.78-0.39C24.89,9.72,25.94,9.81,26.98,9.81L26.98,9.81L26.98,9.81z"/>
		<path class="st2" d="M23.13,10.8c0,0.24-0.03,0.54-0.3,0.54c-0.21,0.03-0.54,0-0.54-0.3c0.06-0.21,0.24-0.39,0.45-0.51
			C22.95,10.47,23.07,10.68,23.13,10.8L23.13,10.8L23.13,10.8z"/>
		<path class="st2" d="M22.53,7.03c0.12-1.2,0.03-2.54,0.06-3.68c0-0.36,0.03-0.78-0.24-1.02c-0.87-0.39-2.03-0.18-3.02-0.24
			c-0.06,0.03-0.18-0.03-0.15,0.09c0,2.36-0.03,4.57-0.03,6.9l0.06,0.27c0.72,0.12,1.43,0.06,2.18,0.06
			c0.39,0.06,0.78,0.18,1.14,0.24c0.03-0.81,0.09-1.44,0.03-2.21L22.53,7.03L22.53,7.03z"/>
		<path class="st4" d="M22.23,6.94c-0.36-0.3-0.45-0.75-0.75-1.11c0.12-0.18,0.33-0.21,0.48-0.36c0.24-0.24,0.48-0.57,0.36-0.93
			c-0.03-0.3-0.18-0.6-0.48-0.75c-0.63-0.24-1.44-0.15-2.06-0.09c-0.12,0.06-0.15,0.18-0.06,0.27c0.24,0.09,0.33,0.27,0.36,0.48
			c-0.03,0.81-0.03,1.61-0.12,2.42l-0.33,0.36c0.33,0.3,0.78,0.06,1.26,0.15c0.12-0.21-0.21-0.36-0.27-0.6
			c0.06-0.24,0-0.57,0.15-0.78c0.45,0.39,0.6,1.02,1.14,1.38l0.7,0.05l-0.02-0.38C22.5,7.12,22.32,6.97,22.23,6.94L22.23,6.94z
			 M21.3,5.48c-0.21,0-0.54,0.15-0.6-0.12c0.03-0.39-0.15-0.9,0-1.26c0.27-0.21,0.69-0.12,0.9,0.15c0.12,0.21,0.12,0.48,0.12,0.72
			C21.6,5.18,21.54,5.42,21.3,5.48L21.3,5.48z"/>
		<path class="st2" d="M41.2,2.94c0-0.27,0.03-0.6-0.12-0.84L40,2.07c-0.78,0.12-1.64-0.12-2.27,0.27c-0.3,0.36-0.15,0.78-0.21,1.2
			c0.07,0.25,0.15,0.51,0.22,0.76L37.6,4.61l-0.46-0.08l-0.12-0.26c0.05-0.18,0.1-0.37,0.14-0.56c-0.03-0.51,0.15-1.29-0.51-1.49
			c-0.99-0.09-1.88-0.12-2.93-0.12c-0.06,0-0.15,0.03-0.18,0.09c0.03,2.3,0,4.28,0.03,6.55c0,0.27-0.09,0.63,0.21,0.75
			c0.87-0.12,1.64,0.03,2.48-0.03c0.33,0,0.54,0.3,0.87,0.21c0.09-0.93,0.09-2.03,0.06-3.05c-0.03-0.08,0.01-0.28-0.12-0.32l0-0.19
			l0.51,0.06l0.05,0.17c-0.02,0.02-0.03,0.04-0.06,0.07l-0.06,3.08c0.03,0.09,0.03,0.33,0.21,0.3c0.93-0.54,2.06-0.18,3.14-0.3
			l0.24-0.09c0.12-0.51,0.06-2.33,0.06-2.33C41.23,5.71,41.2,4.37,41.2,2.94L41.2,2.94z"/>
		<path class="st4" d="M37.73,6.31c0.12,0.18,0.21,0.36,0.18,0.6l-0.24,0.33l0.15,0.12c0.36-0.03,0.84,0.09,1.17-0.06
			c-0.09-0.18-0.3-0.24-0.42-0.36c-0.42-1.1-0.71-2.26-1.04-3.39l-0.36,0.17c-0.21,1.02-0.63,1.94-0.87,2.99
			c-0.06,0.21-0.27,0.24-0.42,0.36c-0.21,0.06-0.3-0.18-0.39-0.3c-0.03-0.9,0.09-1.64,0.03-2.6c-0.03-0.15,0.15-0.33,0.3-0.18
			c0.24,0.12,0.21,0.42,0.3,0.63c0.06,0.09,0.21,0.09,0.24-0.06l0.15-0.93c-0.12-0.3-0.39,0.03-0.63,0
			c-0.45-0.03-1.08,0.09-1.49-0.18c-0.36,0.12-0.27,0.63-0.33,0.96c-0.03,0.06,0,0.12,0.03,0.15c0.3-0.18,0.45-0.66,0.87-0.54
			l0.03,0.9l-0.09,1.94C34.77,7,34.47,7.06,34.5,7.27c0.51,0.15,1.14,0,1.64,0.06c0.3,0.03,0.63,0.09,0.87,0
			c0.06-0.06,0.03-0.15-0.03-0.21c-0.18-0.09-0.39-0.24-0.33-0.48c0.09-0.15,0.12-0.45,0.39-0.36c0.07,0,0.09,0.04,0.11,0.08
			l0.43,0.05V6.4C37.64,6.34,37.64,6.31,37.73,6.31L37.73,6.31z M37.1,5.89l-0.15-0.06c0.09-0.33,0-0.72,0.27-0.96
			c0.27,0.18,0.24,0.6,0.36,0.93C37.52,5.95,37.25,5.95,37.1,5.89L37.1,5.89z"/>
		<path class="st4" d="M40.46,3.86c0,0.21,0.15,0.61-0.03,0.76c-0.21-0.18-0.24-0.36-0.58-0.46c-0.18,0-0.37,0.03-0.4,0.24
			c-0.06,0.64,0.58,0.64,0.94,1.07c0.34,0.34,0.49,0.88,0.34,1.31c-0.14,0.34-0.31,0.55-0.64,0.55c-0.3,0.06-0.52-0.15-0.76-0.03
			c-0.06,0-0.18,0.06-0.24-0.03l0.03-1.19c0.03-0.06,0.09-0.09,0.15-0.09c0.18,0.4,0.06,0.85,0.61,0.88
			c0.18-0.03,0.33-0.05,0.36-0.29c0.06-1.07-1.34-0.8-1.31-1.9c0.03-0.24,0.06-0.46,0.18-0.67c0.24-0.4,0.79-0.15,1.16-0.4
			C40.43,3.55,40.43,3.77,40.46,3.86L40.46,3.86L40.46,3.86z"/>
		<path class="st4" d="M25.46,3.8c-0.3,0.15-0.63,0.39-0.54,0.81c-0.09,0.72-0.06,1.46-0.03,2.24l0.48,0.42l-0.03,0.06
			c-0.51,0-0.99,0.09-1.49,0c-0.21-0.24,0.27-0.36,0.36-0.54c0.09-0.84,0.18-1.7,0.09-2.63c-0.09-0.27-0.54-0.15-0.42-0.45
			c0.45-0.06,1.05-0.06,1.5,0L25.46,3.8L25.46,3.8L25.46,3.8z"/>
		<path class="st4" d="M10.95,4.37c-0.3,0.36-0.36-0.33-0.66-0.36c-0.18-0.03-0.45-0.09-0.6,0.06c-0.06,0.39-0.12,0.75,0,1.11
			c0.12,0.09,0.36,0.06,0.51,0.06c0.18-0.12,0.27-0.45,0.51-0.42c0.15,0.15-0.06,0.39,0.03,0.54c-0.06,0.24,0.15,0.51-0.12,0.6
			c-0.18-0.09-0.27-0.42-0.51-0.42L9.69,5.56c-0.15,0.54-0.09,1.02,0,1.53c0.24,0.24,0.54,0.03,0.81,0.03
			c0.39-0.09,0.3-0.63,0.63-0.57c0.09,0.21,0.12,0.54,0.06,0.78l-0.18,0.12L8.88,7.42c-0.09-0.03-0.3-0.03-0.21-0.18
			c0.69-0.42,0.3-1.23,0.39-1.88c-0.09-0.48,0.27-1.2-0.36-1.5C8.67,3.68,8.88,3.74,8.94,3.68c0.54,0,1.26,0.21,1.67-0.24
			C10.95,3.62,10.92,4.04,10.95,4.37L10.95,4.37L10.95,4.37z"/>
		<path class="st4" d="M7.69,3.89c-0.6,0.48-0.63,1.32-0.9,2C6.55,6.28,6.67,6.85,6.28,7.18c-0.15,0.06-0.27-0.09-0.3-0.21
			C5.77,6.04,5.5,5.12,5.18,4.25c-0.03-0.27-0.66-0.33-0.3-0.54c0.45-0.06,0.78,0.06,1.2,0.03c0.09,0.27-0.33,0.42-0.21,0.75
			c0.27,0.39,0.18,0.99,0.51,1.38l0.15-0.15C6.55,5.03,7.33,4.4,6.67,3.8c0.15-0.27,0.6-0.09,0.9-0.18
			C7.63,3.68,7.84,3.74,7.69,3.89L7.69,3.89L7.69,3.89z"/>
	</g>
	<g>
		<path class="st1" d="M238.52,13.54h4.08c2.16,0,3.76,0.7,3.76,2.68c0,1.5-0.82,2.26-1.91,2.48v0.03c1.33,0.25,2.23,0.99,2.23,2.64
			c0,1.98-1.62,2.96-3.82,2.96h-4.35V13.54z M242.43,18.05c1.43,0,2.19-0.44,2.19-1.47c0-1.04-0.66-1.43-2.16-1.43h-2.14v2.9H242.43
			z M242.68,22.76c1.55,0,2.22-0.5,2.22-1.58c0-1.15-0.88-1.59-2.41-1.59h-2.17v3.17H242.68z"/>
		<path class="st1" d="M249.12,13.54h1.82v9.13h4.97v1.66h-6.8V13.54z"/>
		<path class="st1" d="M260.88,13.5h1.79l3.82,10.84h-1.87l-0.88-2.57h-4.1l-0.89,2.57h-1.71L260.88,13.5z M263.22,20.17l-1.47-4.38
			h-0.03l-1.5,4.38H263.22z"/>
		<path class="st1" d="M266.72,13.54h1.85l2.79,8.42h0.03l2.83-8.42h1.72l-3.75,10.84h-1.72L266.72,13.54z"/>
		<path class="st1" d="M279.98,13.5h1.79l3.82,10.84h-1.87l-0.88-2.57h-4.1l-0.89,2.57h-1.71L279.98,13.5z M282.31,20.17l-1.47-4.38
			h-0.03l-1.5,4.38H282.31z"/>
		<path class="st1" d="M288.73,15.24h-3.33v-1.69h8.48v1.69h-3.33v9.1h-1.82V15.24z"/>
		<path class="st1" d="M295.86,13.54h1.85l5.11,7.7h0.03v-7.7h1.69v10.79h-1.66l-5.3-7.86h-0.03v7.86h-1.69V13.54z"/>
		<path class="st1" d="M307.47,13.54h1.84v10.79h-1.84V13.54z"/>
		<path class="st1" d="M312.24,13.54h1.82v5.02l4.25-5.02h2.16l-3.68,4.16l4.13,6.64h-2.09l-3.24-5.24l-1.53,1.69v3.54h-1.82V13.54z
			"/>
		<path class="st1" d="M326.79,13.54h1.84v10.79h-1.84V13.54z"/>
		<path class="st1" d="M331.56,13.54h1.85l5.11,7.7h0.03v-7.7h1.69v10.79h-1.66l-5.3-7.86h-0.03v7.86h-1.69V13.54z"/>
		<path class="st1" d="M342.48,21.8l1.44-0.76c0.64,1.27,1.63,1.88,2.98,1.88c1.31,0,2.2-0.42,2.2-1.4c0-0.93-0.67-1.37-2.45-1.9
			c-2.09-0.61-3.76-1.18-3.76-3.24c0-1.84,1.5-3.05,3.69-3.05c2.13,0,3.38,1.05,4.04,2.32l-1.33,0.92
			c-0.64-1.08-1.56-1.58-2.73-1.58c-1.2,0-1.88,0.44-1.88,1.23c0,1.01,0.77,1.34,2.54,1.87c2.04,0.6,3.68,1.27,3.68,3.3
			c0,1.77-1.5,3.15-4.07,3.15C344.68,24.54,343.17,23.43,342.48,21.8z"/>
		<path class="st1" d="M355.23,15.24h-3.33v-1.69h8.48v1.69h-3.33v9.1h-1.82V15.24z"/>
		<path class="st1" d="M362.48,13.54h1.84v10.79h-1.84V13.54z"/>
		<path class="st1" d="M369.74,15.24h-3.33v-1.69h8.48v1.69h-3.33v9.1h-1.82V15.24z"/>
		<path class="st1" d="M376.73,20.4v-6.86h1.82v6.7c0,1.65,0.71,2.63,2.38,2.63c1.65,0,2.36-0.95,2.36-2.61v-6.71h1.79v6.84
			c0,2.45-1.39,4.13-4.17,4.13C377.94,24.51,376.73,22.85,376.73,20.4z"/>
		<path class="st1" d="M390.25,15.24h-3.33v-1.69h8.48v1.69h-3.33v9.1h-1.82V15.24z"/>
		<path class="st1" d="M397.39,13.54h6.97v1.69h-5.15v2.68h3.78v1.62h-3.78v3.14h5.44v1.66h-7.26V13.54z"/>
		<path d="M238.47,28.78h2.32l2.78,8.24h0.03l2.7-8.24h2.36v10.39h-1.7v-7.75h-0.03c-0.15,0.72-0.38,1.39-0.62,2.12l-2.02,5.63
			h-1.56l-2.01-5.63c-0.25-0.74-0.41-1.19-0.63-2.19h-0.03v7.82h-1.59V28.78z"/>
		<path d="M251.27,28.78h1.77v10.39h-1.77V28.78z"/>
		<path d="M255.15,33.95c0-3.48,1.95-5.36,4.56-5.36c2.41,0,3.57,1.33,4.03,3.23l-1.67,0.48c-0.39-1.38-1-2.08-2.37-2.08
			c-1.75,0-2.78,1.36-2.78,3.72c0,2.47,1.05,3.83,2.81,3.83c1.35,0,2.11-0.67,2.5-2.23l1.67,0.38c-0.5,2.06-1.78,3.45-4.18,3.45
			C257.04,39.37,255.15,37.53,255.15,33.95z"/>
		<path d="M265.86,28.78h3.72c2.47,0,3.9,1,3.9,3.12c0,1.66-0.86,2.6-2.3,2.95l2.44,4.32h-1.88l-2.33-4.1h-1.83v4.1h-1.73V28.78z
			 M269.51,33.54c1.46,0,2.25-0.36,2.25-1.6c0-1.19-0.77-1.56-2.26-1.56h-1.91v3.16H269.51z"/>
		<path d="M275.06,33.98c0-3.5,2.06-5.39,4.7-5.39c2.62,0,4.67,1.9,4.67,5.39s-2.05,5.39-4.67,5.39
			C277.12,39.37,275.06,37.47,275.06,33.98z M282.67,33.98c0-2.44-1.17-3.78-2.91-3.78c-1.77,0-2.93,1.33-2.93,3.78
			s1.17,3.8,2.93,3.8C281.5,37.78,282.67,36.42,282.67,33.98z"/>
		<path d="M286.44,28.78h3.93c2.08,0,3.62,0.67,3.62,2.58c0,1.45-0.79,2.18-1.84,2.39v0.03c1.28,0.24,2.15,0.95,2.15,2.54
			c0,1.91-1.56,2.85-3.68,2.85h-4.18V28.78z M290.2,33.12c1.38,0,2.11-0.42,2.11-1.42c0-1-0.63-1.38-2.08-1.38h-2.06v2.79H290.2z
			 M290.44,37.66c1.49,0,2.13-0.48,2.13-1.52c0-1.11-0.84-1.53-2.32-1.53h-2.09v3.05H290.44z"/>
		<path d="M296.55,28.78h1.77v10.39h-1.77V28.78z"/>
		<path d="M300.43,33.98c0-3.5,2.06-5.39,4.7-5.39c2.62,0,4.67,1.9,4.67,5.39s-2.05,5.39-4.67,5.39
			C302.49,39.37,300.43,37.47,300.43,33.98z M308.03,33.98c0-2.44-1.17-3.78-2.91-3.78c-1.77,0-2.93,1.33-2.93,3.78
			s1.17,3.8,2.93,3.8C306.87,37.78,308.03,36.42,308.03,33.98z"/>
		<path d="M311.8,28.78h1.75v8.79h4.79v1.6h-6.54V28.78z"/>
		<path d="M319.13,33.98c0-3.5,2.06-5.39,4.7-5.39c2.62,0,4.67,1.9,4.67,5.39s-2.05,5.39-4.67,5.39
			C321.2,39.37,319.13,37.47,319.13,33.98z M326.74,33.98c0-2.44-1.17-3.78-2.91-3.78c-1.77,0-2.93,1.33-2.93,3.78
			s1.17,3.8,2.93,3.8C325.58,37.78,326.74,36.42,326.74,33.98z"/>
		<path d="M330,33.94c0-3.33,1.81-5.35,4.58-5.35c1.97,0,3.41,0.91,4.03,3.27l-1.63,0.44c-0.46-1.56-1.18-2.08-2.41-2.08
			s-2.79,0.76-2.79,3.68c0,2.91,1.39,3.9,2.86,3.9c1.38,0,2.32-0.81,2.43-2.34h-2.09v-1.42h3.78v5.14h-1.45v-1.5h-0.03
			c-0.32,0.74-1.24,1.7-2.83,1.7C331.46,39.37,330,37.11,330,33.94z"/>
		<path d="M343.19,34.69l-3.54-5.91h1.85l2.6,4.42l2.58-4.42h1.82l-3.55,5.91v4.48h-1.77V34.69z"/>
	</g>
</g>
</svg>
